<?xml version="1.0" encoding="utf-8"?>
<svg xmlns="http://www.w3.org/2000/svg" height="40px" viewBox="0 0 247.78 96.5">

<defs>
<style>.cls-1{fill:#fff;}</style>
</defs>

<title>icones_2020_blanc_balconFichier 1</title>

<g id="Calque_2" data-name="Calque 2">
<g id="_42_logotype_no_editing_" data-name="42 logotype (no editing)"><polygon class="cls-1" points="76 0 50.66 0 0 50.66 0 71.17 50.66 71.17 50.66 96.5 76 96.5 76 50.66 25.33 50.66 76 0"/>
<polygon class="cls-1" points="86.85 25.33 112.19 0 86.85 0 86.85 25.33"/>
<polygon class="cls-1" points="137.52 25.33 137.52 0 112.19 0 112.19 25.33 86.85 50.66 86.85 76 112.19 76 112.19 50.66 137.52 25.33"/>
<polygon class="cls-1" points="137.52 50.66 112.19 76 137.52 76 137.52 50.66"/>
<rect class="cls-1" x="161.99" y="50.74" width="2" height="25.19"/>
</g>

<g id="Campus_name" data-name="Campus name">
<path class="cls-1" d="M184.38,69.28A7.8,7.8,0,0,1,181,70,6.8,6.8,0,0,1,176,68.07a6.29,6.29,0,0,1-1.84-4.62,7.48,7.48,0,0,1,2.12-5.38,7.69,7.69,0,0,1,5.53-2A7.17,7.17,0,0,1,187,58a6.15,6.15,0,0,1,1.74,4.54,7.85,7.85,0,0,1-.66,3.22,5.24,5.24,0,0,1-1.72,2.2l1.72,2.15-2.76.42Zm.12-3.61a4.16,4.16,0,0,0,1.06-2.86,4.12,4.12,0,0,0-1.16-2.9,3.94,3.94,0,0,0-2.8-1,4.16,4.16,0,0,0-3.17,1.28,4.63,4.63,0,0,0-1.16,3.12,3.73,3.73,0,0,0,4,3.86,2.53,2.53,0,0,0,1.34-.28l-2.16-2.52L183.2,64Z"/>

<path class="cls-1" d="M194.87,56.35,194,63.63a6.26,6.26,0,0,0-.1,1.16,2.34,2.34,0,0,0,.58,1.72,2.5,2.5,0,0,0,1.76.6,2.69,2.69,0,0,0,2-.66,4.5,4.5,0,0,0,.91-2.54l.92-7.56h3.08l-1,7.76c-.2,1.6-.38,3.22-1.58,4.44A5.88,5.88,0,0,1,196.17,70,5.73,5.73,0,0,1,192,68.61a4.05,4.05,0,0,1-1.18-3.08c0-.6.1-1.56.16-2.1l.86-7.08Z"/>

<path class="cls-1" d="M213.06,59h-4.37l-.32,2.58h4.2l-.32,2.6h-4.2l-.36,3h4.45l-.33,2.6h-7.44L206,56.35h7.37Zm0-6.32-3.6,2.58-1.18-1.06,3.06-3Z"/>

<path class="cls-1" d="M216.05,56.35h4.26a4.09,4.09,0,0,1,2.94.92,3.12,3.12,0,0,1,.87,2.28,3.32,3.32,0,0,1-.63,2.08,2.69,2.69,0,0,1-1.4,1,3.3,3.3,0,0,1,1.52.8,2.73,2.73,0,0,1,.87,2.12,4,4,0,0,1-1.08,2.86,5.56,5.56,0,0,1-4,1.26h-5Zm1.74,10.94h1.12a3.22,3.22,0,0,0,2-.5,1.63,1.63,0,0,0,.49-1.28,1.42,1.42,0,0,0-.37-1,2.58,2.58,0,0,0-1.64-.46h-1.2Zm.68-5.52h.62a2.46,2.46,0,0,0,1.7-.5,1.69,1.69,0,0,0,.46-1.2,1.27,1.27,0,0,0-.42-1,2.19,2.19,0,0,0-1.36-.32h-.64Z"/>

<path class="cls-1" d="M235,59h-4.37l-.32,2.58h4.2l-.32,2.6H230l-.36,3h4.45l-.33,2.6h-7.44l1.64-13.34h7.37Z"/>

<path class="cls-1" d="M246.27,69.28A7.19,7.19,0,0,1,243,70a6.48,6.48,0,0,1-4.7-1.78,6.26,6.26,0,0,1-1.8-4.62,7.65,7.65,0,0,1,2.12-5.46A7.4,7.4,0,0,1,244,56.05a7.23,7.23,0,0,1,3.79,1l-.38,3.26a4.54,4.54,0,0,0-3.34-1.34,4,4,0,0,0-3.17,1.26,4.69,4.69,0,0,0-1.2,3.14,3.58,3.58,0,0,0,3.87,3.78A5,5,0,0,0,246.68,66Z"/>
</g>
</g>
</svg>