/* XPM */
static char *result[] = {
/* columns rows colors chars-per-pixel */
"64 64 166 2 ",
"   c #0F0F0F",
".  c #151515",
"X  c #1C1C1C",
"o  c #1D1F21",
"O  c #1B2126",
"+  c #1E2B36",
"@  c #1D2E3C",
"#  c #1E303F",
"$  c #222222",
"%  c #282726",
"&  c #2C2A29",
"*  c #272B2F",
"=  c #312E2C",
"-  c #363330",
";  c #383633",
":  c #393838",
">  c #423D3A",
",  c #45413D",
"<  c #1E3344",
"1  c #1C384F",
"2  c #1E3E59",
"3  c #213D54",
"4  c #2F4557",
"5  c #1F4565",
"6  c #244663",
"7  c #284760",
"8  c #254C6C",
"9  c #294E6D",
"0  c #274A67",
"q  c #2B506C",
"w  c #3B5266",
"e  c #244F72",
"r  c #255175",
"t  c #2A5375",
"y  c #26557B",
"u  c #29587F",
"i  c #2A5679",
"p  c #454545",
"a  c #4F4945",
"s  c #4B4846",
"d  c #514B47",
"f  c #544E49",
"g  c #5C544F",
"h  c #56504B",
"j  c #5E5651",
"k  c #625A54",
"l  c #6B635C",
"z  c #71675F",
"x  c #575F67",
"c  c #495F74",
"v  c #47667E",
"b  c #6C6662",
"n  c #736A63",
"m  c #786E66",
"M  c #7D726A",
"N  c #6B6F74",
"B  c #64727E",
"V  c #82776E",
"C  c #847A72",
"Z  c #897D75",
"A  c #8E8279",
"S  c #92857C",
"D  c #98897F",
"F  c #275780",
"G  c #2B5D85",
"H  c #2B5F89",
"J  c #305F86",
"K  c #2D618D",
"L  c #3D6585",
"P  c #39668B",
"I  c #2E6593",
"U  c #2F6896",
"Y  c #2F6B9D",
"T  c #2D6798",
"R  c #326691",
"E  c #336996",
"W  c #316B9A",
"Q  c #396C95",
"!  c #2F6DA0",
"~  c #326FA1",
"^  c #3372A5",
"/  c #3575A9",
"(  c #456E8F",
")  c #576D80",
"_  c #5B758A",
"`  c #416E91",
"'  c #487394",
"]  c #587892",
"[  c #637685",
"{  c #6F808E",
"}  c #6C869B",
"|  c #738899",
" . c #7F93A1",
".. c #878686",
"X. c #9B8D83",
"o. c #9E9187",
"O. c #8D8D90",
"+. c #8E9295",
"@. c #A3968B",
"#. c #A7998D",
"$. c #AA9A8E",
"%. c #A09287",
"&. c #A99B90",
"*. c #A29A95",
"=. c #ABA39D",
"-. c #B2A296",
";. c #B5A69A",
":. c #BBAB9E",
">. c #BBA79A",
",. c #8D9DAA",
"<. c #8EA0AF",
"1. c #9FABB3",
"2. c #AAA6A2",
"3. c #AFABA8",
"4. c #B0A7A0",
"5. c #B5ABA3",
"6. c #BEADA0",
"7. c #B1AFAE",
"8. c #BEB1A6",
"9. c #B6B0AC",
"0. c #A9AFB4",
"q. c #ABB5BD",
"w. c #B7B5B3",
"e. c #BCB9B7",
"r. c #C3B1A4",
"t. c #C5B5A9",
"y. c #C8B6A9",
"u. c #CCBAAC",
"i. c #D5B6A5",
"p. c #C0BAB6",
"a. c #D0BEB0",
"s. c #C4C0BD",
"d. c #D5C3B5",
"f. c #D7C5B8",
"g. c #DAC7B8",
"h. c #DDCABB",
"j. c #DAC6B7",
"k. c #E0CDBE",
"l. c #E3C5B4",
"z. c #B3BCC2",
"x. c #BAC2C9",
"c. c #C6CBCF",
"v. c #CACBCB",
"b. c #C8C6C5",
"n. c #CDD3D7",
"m. c #D4D5D6",
"M. c #DBDCDD",
"N. c #E4CFC0",
"B. c #E5D1C1",
"V. c #EAD6C5",
"C. c #EDD8C7",
"Z. c #EED9C9",
"A. c #F2D5C3",
"S. c #F3DDCC",
"D. c #F6E0CF",
"F. c #F9E1CF",
"G. c #F7E1D1",
"H. c #FAE3D2",
"J. c #DEE1E2",
"K. c #ECECEC",
"L. c #E1E2E2",
"P. c #F1F0EF",
"I. c #F3F3F3",
"U. c #F8F7F6",
"Y. c #FFFFFF",
"T. c None",
/* pixels */
"T.T.T.T.T.T.T.T.T.T.T.T.T.T.T.T.T.T.T.T.T.T.T.T.T.T.T.T.T.T.T.T.T.T.T.T.T.T.T.T.T.T.T.T.T.T.T.T.T.T.T.T.T.T.T.T.T.T.T.T.T.T.T.T.",
"T.T.T.T.T.T.T.T.T.T.T.T.T.T.T.T.T.T.T.T.T.T.T.T.T.T.T.T.T.T.T.T.T.T.X X $ X T.T.T.T.T.T.T.T.T.T.T.T.T.T.T.T.T.T.T.T.T.T.T.T.T.T.",
"T.T.T.T.T.T.T.T.T.T.T.T.T.T.T.T.T.T.T.T.T.T.T.T.T.T.$ $ $ X X X $ $ X X % $ $ $ $ T.T.T.T.T.T.T.T.T.T.T.T.T.T.T.T.T.T.T.T.T.T.T.",
"T.T.T.T.T.T.T.T.T.T.T.T.T.T.T.T.T.T.T.T.T.T.T.T.X X $ $ $ $ % % $ $ X X $ $ $ $ $ $ X T.T.T.T.T.T.T.T.T.T.T.T.T.T.T.T.T.T.T.T.T.",
"T.T.T.T.T.T.T.T.T.T.T.T.T.T.T.T.T.T.T.T.T.T.X X % $ $ $ $ % $ $ $ $ $ X $ $ $ $ $ $ $ $ T.T.T.T.T.T.T.T.T.T.T.T.T.T.T.T.T.T.T.T.",
"T.T.T.T.T.T.T.T.T.T.T.T.T.T.T.T.T.T.T.T.T.X $ % $ $ $ $ $ $ $ $ $ $ $ X $ $ $ $ $ $ $ $ $ X T.T.T.T.T.T.T.T.T.T.T.T.T.T.T.T.T.T.",
"T.T.T.T.T.T.T.T.T.T.T.T.T.T.T.T.T.T.T.T.X % X $ $ $ $ $ $ $ $ $ $ $ $ X X % $ $ % $ $ $ % X T.T.T.T.T.T.T.T.T.T.T.T.T.T.T.T.T.T.",
"T.T.T.T.T.T.T.T.T.T.T.T.T.T.T.T.T.T.T.X $ X X $ $ % $ $ $ $ $ O $ $ $ $ X $ $ $ $ $ $ $ $ % X T.T.T.T.T.T.T.T.T.T.T.T.T.T.T.T.T.",
"T.T.T.T.T.T.T.T.T.T.T.T.T.T.T.T.T.T.T.X % X X % $ $ $ $ $ % $ $ $ % $ $ X $ $ $ % $ $ $ $ $ $ X T.T.T.T.T.T.T.T.T.T.T.T.T.T.T.T.",
"T.T.T.T.T.T.T.T.T.T.T.T.T.T.T.T.T.T.T.$ $ X $ $ % $ $ $ % k a a & l % $ X X $ $ $ $ $ $ $ % $ O T.T.T.T.T.T.T.T.T.T.T.T.T.T.T.T.",
"T.T.T.T.T.T.T.T.T.T.T.T.T.T.T.T.T.T.T.$ $ X $ $ $ $ $ $ d X.n k & $.; $ O X $ $ $ $ $ % $ $ $ $ T.T.T.T.T.T.T.T.T.T.T.T.T.T.T.T.",
"T.T.T.T.T.T.T.T.T.T.T.T.T.T.T.T.T.T.T.X O X X $ $ $ $ o S :.C S $ ;.Z O $ X $ $ $ $ $ $ $ $ $ $ X T.T.T.T.T.T.T.T.T.T.T.T.T.T.T.",
"T.T.T.T.T.T.T.T.T.T.T.T.T.T.T.T.T.T.T.T.T.$ X o % , l A h.V.u.h.l S B.j $ X X % $ % $ $ $ % $ $ X T.T.T.T.T.T.T.T.T.T.T.T.T.T.T.",
"T.T.T.T.T.T.T.T.T.T.T.T.T.T.T.T.T.T.T.T.T.T.T.k ;.B.G.H.H.H.H.H.F.B.G.B.M & . X $ $ $ $ $ $ $ $ . T.T.T.T.T.T.T.T.T.T.T.T.T.T.T.",
"T.T.T.T.T.T.T.T.T.T.T.T.T.T.T.T.T.T.T.T.T.T.T.-.B.Z.F.d.V.H.F.F.G.Z.S.H.S.6.n : X $ $ $ $ $ $ $ X T.T.T.T.T.T.T.T.T.T.T.T.T.T.T.",
"T.T.T.T.T.T.T.T.T.T.T.T.T.T.T.T.T.T.T.T.T.X % > s g n o.k.H.H.H.V.X.Z m j k m o.n % $ $ $ $ $ $ T.T.T.T.T.T.T.T.T.T.T.T.T.T.T.T.",
"T.T.T.T.T.T.T.T.T.T.T.T.T.T.T.T.T.T.T.T.. % M f.g.r.M > ;.u.t.d.A , k A o.D l - d = $ $ $ % $ $ T.T.T.T.T.T.T.T.T.T.T.T.T.T.T.T.",
"T.T.T.T.T.T.T.T.T.T.T.T.T.T.T.T.T.T.T.T.X X o.H.H.H.u.l & ; , - = S h.H.H.H.G.;.& . . X o X $ X T.T.T.T.T.T.T.T.T.T.T.T.T.T.T.T.",
"T.T.T.T.T.T.T.T.T.T.T.T.T.T.T.T.T.T.T.T.. T.f.H.F.H.Z m > @.B.C k z M H.H.H.H.H.l g A > d f % T.T.T.T.T.T.T.T.T.T.T.T.T.T.T.T.T.",
"T.T.T.T.T.T.T.T.T.T.T.T.T.T.T.T.T.T.T.T.X b C.H.H.H.V.y.-.H.H.-.j 6.r.H.H.G.G.H.m Z H.k.C.Z.X.T.T.T.T.T.T.T.T.T.T.T.T.T.T.T.T.T.",
"T.T.T.T.T.T.T.T.T.T.T.T.T.T.T.T.T.T.T.T.T.h Z.H.H.H.H.-.V.H.H.g.f h.H.H.H.H.H.S.j ;.H.H.S.F.a.T.T.T.T.T.T.T.T.T.T.T.T.T.T.T.T.T.",
"T.T.T.T.T.T.T.T.T.T.T.T.T.T.T.T.T.T.T.T.T.& b 6.d.u.A j r.V.H.H.Z M Z.H.H.H.S.%.n C.H.A.V.H.r.T.T.T.T.T.T.T.T.T.T.T.T.T.T.T.T.T.",
"T.T.T.T.T.T.T.T.T.T.T.T.T.T.T.T.T.T.T.T.T.@.Z h f k V d.j.u.S.H.V.M k $.:.$.n n h.H.H.A.A.S.o.T.T.T.T.T.T.T.T.T.T.T.T.T.T.T.T.T.",
"T.T.T.T.T.T.T.T.T.T.T.T.T.T.T.T.T.T.T.T.T.a.H.C.B.Z.S.Z.V.B.B.V.C.Z.r.S M V ;.Z.H.H.F.S.H.t.T.T.T.T.T.T.T.T.T.T.T.T.T.T.T.T.T.T.",
"T.T.T.T.T.T.T.T.T.T.T.T.T.T.T.T.T.T.T.T.T.u.H.H.H.g.=.2.p.2.v.3.9.;.t.V.G.H.H.H.G.g.S.S.u.T.T.T.T.T.T.T.T.T.T.T.T.T.T.T.T.T.T.T.",
"T.T.T.T.T.T.T.T.T.T.T.T.T.T.T.T.T.T.T.T.T.6.H.G.H.k.2.m.Y.b.Y.v.K.c.7.u.H.H.G.H.h.V #.X.T.T.T.T.T.T.T.T.T.T.T.T.T.T.T.T.T.T.T.T.",
"T.T.T.T.T.T.T.T.T.T.T.T.T.T.T.T.T.T.T.T.T.T.k.H.F.H.u.w.M.e.Y.v.J.w.8.S.G.G.H.C.#.T.T.T.T.T.T.T.T.T.T.T.T.T.T.T.T.T.T.T.T.T.T.T.",
"T.T.T.T.T.T.T.T.T.T.T.T.T.T.T.T.T.T.T.T.T.T.@.B.H.H.H.k.t.=.e.=.5.d.F.G.G.H.V.&.T.T.T.T.T.T.T.T.T.T.T.T.T.T.T.T.T.T.T.T.T.T.T.T.",
"T.T.T.T.T.T.T.T.T.T.T.T.T.T.T.T.T.T.T.T.T.T.T.X.h.H.H.H.H.S.A.S.F.G.H.H.G.h.@.T.T.T.T.T.T.T.T.T.T.T.T.T.T.T.T.T.T.T.T.T.T.T.T.T.",
"T.T.T.T.T.T.T.T.T.T.T.T.T.T.T.T.T.T.T.T.T.T.T.T.T.:.k.S.H.H.H.H.G.F.S.h.;.T.T.T.T.T.T.T.T.T.T.T.T.T.T.T.T.T.T.T.T.T.T.T.T.T.T.T.",
"T.T.T.T.T.T.T.T.T.T.T.T.T.T.T.T.T.T.T.T.T.T.T.T.T.T.T.o.;.r.u.u.r.;.X.T.T.T.T.T.T.T.T.T.T.T.T.T.T.T.T.T.T.T.T.T.T.T.T.T.T.T.T.T.",
"T.T.T.T.T.T.T.T.T.T.T.T.T.T.T.T.T.T.T.T.T.T.T.T.T.T.T.T.T.T.S i.i.l.$.T.T.T.T.T.T.T.T.T.T.T.T.T.T.T.T.T.T.T.T.T.T.T.T.T.T.T.T.T.",
"T.T.T.T.T.T.T.T.T.T.T.T.T.T.T.T.T.T.T.T.T.T.T.T.T.T.T.T.T.4 *.A.A.H.*.2 T.T.T.T.T.T.T.T.T.T.T.T.T.T.T.T.T.T.T.T.T.T.T.T.T.T.T.T.",
"T.T.T.T.T.T.T.T.T.T.T.T.T.T.T.T.T.T.T.T.T.T.T.T.T.T.T.T.t v 5.g.f.r.B H T.T.T.T.T.T.T.T.T.T.T.T.T.T.T.T.T.T.T.T.T.T.T.T.T.T.T.T.",
"T.T.T.T.T.T.T.T.T.T.T.T.T.T.T.T.T.T.T.T.T.T.T.T.T.T.T.T.E [ w.7.w.+.E ^ 3 T.T.T.T.T.T.T.T.T.T.T.T.T.T.T.T.T.T.T.T.T.T.T.T.T.T.T.",
"T.T.T.T.T.T.T.T.T.T.T.T.T.T.T.T.T.T.T.T.T.T.T.T.T.T.T.y ' M.I.K.K.| ~ / 8 T.T.T.T.T.T.T.T.T.T.T.T.T.T.T.T.T.T.T.T.T.T.T.T.T.T.T.",
"T.T.T.T.T.T.T.T.T.T.T.T.T.T.T.T.T.T.T.T.T.T.T.T.T.T.T.5 | U.Y.Y.M.P R G e 0 T.T.T.T.T.T.T.T.T.T.T.T.T.T.T.T.T.T.T.T.T.T.T.T.T.T.",
"T.T.T.T.T.T.T.T.T.T.T.T.T.T.T.T.T.T.T.T.T.T.T.T.T.T.6 t x.Y.Y.Y.0.e H W ^ I T.T.T.T.T.T.T.T.T.T.T.T.T.T.T.T.T.T.T.T.T.T.T.T.T.T.",
"T.T.T.T.T.T.T.T.T.T.T.T.T.T.T.T.T.T.T.T.T.T.T.T.T.1 Y v K.Y.Y.U.B y ^ / ^ ^ q T.T.T.T.T.T.T.T.T.T.T.T.T.T.T.T.T.T.T.T.T.T.T.T.T.",
"T.T.T.T.T.T.T.T.T.T.T.T.T.T.T.T.T.T.T.T.T.T.T.T.T.y ~ <.Y.Y.Y.M.P F W ^ ^ / G T.T.T.T.T.T.T.T.T.T.T.T.T.T.T.T.T.T.T.T.T.T.T.T.T.",
"T.T.T.T.T.T.T.T.T.T.T.T.T.T.T.T.T.T.T.T.T.T.T.T.2 Y Q c.Y.Y.Y.q.W r K / / / E T.T.T.T.T.T.T.T.T.T.T.T.T.T.T.T.T.T.T.T.T.T.T.T.T.",
"T.T.T.T.T.T.T.T.T.T.T.T.T.T.T.T.T.T.T.T.T.T.T.T.r ^ ' K.Y.Y.U.,.~ H U / / / ^ 8 T.T.T.T.T.T.T.T.T.T.T.T.T.T.T.T.T.T.T.T.T.T.T.T.",
"T.T.T.T.T.T.T.T.T.T.T.T.T.T.T.T.T.T.T.T.T.T.T.6 I ^ } U.Y.Y.P.] ^ K W / ^ / ^ u T.T.T.T.T.T.T.T.T.T.T.T.T.T.T.T.T.T.T.T.T.T.T.T.",
"T.T.T.T.T.T.T.T.T.T.T.T.T.T.T.T.T.T.T.T.T.T.T.t ^ ! ,.Y.Y.Y.M.` ^ K U / ^ ^ / I T.T.T.T.T.T.T.T.T.T.T.T.T.T.T.T.T.T.T.T.T.T.T.T.",
"T.T.T.T.T.T.T.T.T.T.T.T.T.T.T.T.T.T.T.T.T.T.8 H / Y q.Y.Y.Y.c.E ^ K K / / ^ U u T.T.T.T.T.T.T.T.T.T.T.T.T.T.T.T.T.T.T.T.T.T.T.T.",
"T.T.T.T.T.T.T.T.T.T.T.T.T.T.T.T.T.T.T.T.T.T.8 E / R x.Y.Y.Y.z.E / I G ^ I G y 5 6 T.T.T.T.T.T.T.T.T.T.T.T.T.T.T.T.T.T.T.T.T.T.T.",
"T.T.T.T.T.T.T.T.T.T.T.T.T.T.T.T.T.T.T.T.T.6 e ^ / Q n.Y.Y.Y.z.T ^ ^ 5 u K ! Y 8 w T.T.T.T.T.T.T.T.T.T.T.T.T.T.T.T.T.T.T.T.T.T.T.",
"T.T.T.T.T.T.T.T.T.T.T.T.T.T.T.T.T.T.T.T.T.4 i ^ ^ ` J.Y.Y.Y.z.U / / F Y Y P [ =.&.T.T.T.T.T.T.T.T.T.T.T.T.T.T.T.T.T.T.T.T.T.T.T.",
"T.T.T.T.T.T.T.T.T.T.T.T.T.T.T.T.T.T.T.T.T.T.L / ^ ` m.I.I.P.0.E / / K c O.y.C.y.C T.T.T.T.T.T.T.T.T.T.T.T.T.T.T.T.T.T.T.T.T.T.T.",
"T.T.T.T.T.T.T.T.T.T.T.T.T.T.T.T.T.T.T.T.T.T.J / / 9 : s s , : H / / Y +.S.h.a...x T.T.T.T.T.T.T.T.T.T.T.T.T.T.T.T.T.T.T.T.T.T.T.",
"T.T.T.T.T.T.T.T.T.T.T.T.T.T.T.T.T.T.T.T.T.T.8 H I 3 X X X X X 9 ~ ~ W _ y.N B P G T.T.T.T.T.T.T.T.T.T.T.T.T.T.T.T.T.T.T.T.T.T.T.",
"T.T.T.T.T.T.T.T.T.T.T.T.T.T.T.T.T.T.T.T.T.T.X O O o X X O X X O + < < @ * + @ < # T.T.T.T.T.T.T.T.T.T.T.T.T.T.T.T.T.T.T.T.T.T.T.",
"T.T.T.T.T.T.T.T.T.T.T.T.T.T.T.T.T.T.T.T.T.T.X X X X X X X X X X X X X X X X X X X T.T.T.T.T.T.T.T.T.T.T.T.T.T.T.T.T.T.T.T.T.T.T.",
"T.T.T.T.T.T.T.T.T.T.T.T.T.T.T.T.T.T.T.T.T.T.T.T.T.T.. X X . . . . X . . . X . T.T.T.T.T.T.T.T.T.T.T.T.T.T.T.T.T.T.T.T.T.T.T.T.T.",
"T.T.T.T.T.T.T.T.T.T.T.T.T.T.T.T.T.T.T.T.T.T.T.T.T.T.T.X X X $ . X X X X X $ X T.T.T.T.T.T.T.T.T.T.T.T.T.T.T.T.T.T.T.T.T.T.T.T.T.",
"T.T.T.T.T.T.T.T.T.T.T.T.T.T.T.T.T.T.T.T.T.T.T.T.T.T.T.X X X X X X X $ X X X X T.T.T.T.T.T.T.T.T.T.T.T.T.T.T.T.T.T.T.T.T.T.T.T.T.",
"T.T.T.T.T.T.T.T.T.T.T.T.T.T.T.T.T.T.T.T.T.T.T.T.T.T.T.. X X . . . X . X . X X T.T.T.T.T.T.T.T.T.T.T.T.T.T.T.T.T.T.T.T.T.T.T.T.T.",
"T.T.T.T.T.T.T.T.T.T.T.T.T.T.T.T.T.T.T.T.T.T.T.& X X X X .     . X $ $ $ $ $ X T.T.T.T.T.T.T.T.T.T.T.T.T.T.T.T.T.T.T.T.T.T.T.T.T.",
"T.T.T.T.T.T.T.T.T.T.T.T.T.T.T.T.T.T.T.T.T.$ X     . . .         . $ $ $ $ $ $ T.T.T.T.T.T.T.T.T.T.T.T.T.T.T.T.T.T.T.T.T.T.T.T.T.",
"T.T.T.T.T.T.T.T.T.T.T.T.T.T.T.T.T.T.T.T.% X . X X X .   . . . . X $ $ $ $ $ $ $ T.T.T.T.T.T.T.T.T.T.T.T.T.T.T.T.T.T.T.T.T.T.T.T.",
"T.T.T.T.T.T.T.T.T.T.T.T.T.T.T.T.T.T.T.T.$ $ $ $ o X X X X X $ $ $ $ $ % $ % $ X T.T.T.T.T.T.T.T.T.T.T.T.T.T.T.T.T.T.T.T.T.T.T.T.",
"T.T.T.T.T.T.T.T.T.T.T.T.T.T.T.T.T.T.T.$ $ $ X X X X $ $ $ $ $ % $ $ X o X X X X T.T.T.T.T.T.T.T.T.T.T.T.T.T.T.T.T.T.T.T.T.T.T.T.",
"T.T.T.T.T.T.T.T.T.T.T.T.T.T.T.T.T.T.T.X X T.T.T.% X X T.T.T.T.T.T.T.T.T.T.T.T.T.T.T.T.T.T.T.T.T.T.T.T.T.T.T.T.T.T.T.T.T.T.T.T.T.",
"T.T.T.T.T.T.T.T.T.T.T.T.T.T.T.T.T.T.T.T.T.T.T.T.T.T.T.T.T.T.T.T.T.T.T.T.T.T.T.T.T.T.T.T.T.T.T.T.T.T.T.T.T.T.T.T.T.T.T.T.T.T.T.T."
};
