/* XPM */
static char *result[] = {
/* columns rows colors chars-per-pixel */
"64 64 239 2 ",
"   c #0B081B",
".  c #100B1B",
"X  c #0B0D24",
"o  c #060621",
"O  c #100E23",
"+  c #131224",
"@  c #1D1627",
"#  c #191528",
"$  c #0E1024",
"%  c #2C1E2C",
"&  c #261B29",
"*  c #381A26",
"=  c #321F31",
"-  c #35232E",
";  c #3C2427",
":  c #3B2531",
">  c #392331",
",  c #23263F",
"<  c #432525",
"1  c #4B2B24",
"2  c #432C29",
"3  c #463225",
"4  c #4A3428",
"5  c #553227",
"6  c #422931",
"7  c #442B37",
"8  c #473B34",
"9  c #5B3435",
"0  c #52282F",
"q  c #79342A",
"w  c #7E2439",
"e  c #623935",
"r  c #6A282C",
"t  c #531927",
"y  c #4A4134",
"u  c #55402D",
"i  c #69422D",
"p  c #794525",
"a  c #79552B",
"s  c #674834",
"d  c #6C583C",
"f  c #786B3C",
"g  c #2B2E43",
"h  c #35374B",
"j  c #2D385C",
"k  c #353348",
"l  c #323E62",
"z  c #2D3961",
"x  c #4A3453",
"c  c #334265",
"v  c #594C45",
"b  c #50545C",
"n  c #454C61",
"m  c #545772",
"M  c #5D647A",
"N  c #5B6362",
"B  c #797779",
"V  c #6A6875",
"C  c #6C5D5A",
"Z  c #9A1E2C",
"A  c #971D34",
"S  c #9D212E",
"D  c #963C2C",
"F  c #822435",
"G  c #9B2534",
"H  c #9E2835",
"J  c #942533",
"K  c #9F313E",
"L  c #B0382F",
"P  c #A22A35",
"I  c #AB2A36",
"U  c #AD2B38",
"Y  c #A92534",
"T  c #B32D39",
"R  c #AE3530",
"E  c #AE3E34",
"W  c #B33A30",
"Q  c #B83635",
"!  c #A23E2B",
"~  c #C5323D",
"^  c #CA333E",
"/  c #CC383C",
"(  c #D63B3B",
")  c #C62C3A",
"_  c #9B4A24",
"`  c #90562F",
"'  c #A54629",
"]  c #B75425",
"[  c #B14334",
"{  c #B24E3B",
"}  c #B4513D",
"|  c #A64C35",
" . c #9A6A2C",
".. c #9E7134",
"X. c #A4712A",
"o. c #A97431",
"O. c #AE6E2F",
"+. c #C75926",
"@. c #D25629",
"#. c #D75829",
"$. c #C14837",
"%. c #DC443A",
"&. c #C45331",
"*. c #CD4F32",
"=. c #E55B2C",
"-. c #E7443D",
";. c #EC5A36",
":. c #C86A26",
">. c #D76728",
",. c #D57225",
"<. c #C66437",
"1. c #D77633",
"2. c #C77836",
"3. c #E36428",
"4. c #E97528",
"5. c #E67B36",
"6. c #F6772D",
"7. c #AB3642",
"8. c #8F3F50",
"9. c #D53641",
"0. c #D93A41",
"q. c #E83944",
"w. c #A74B59",
"e. c #A7515F",
"r. c #B15349",
"t. c #BD7250",
"y. c #A65B6A",
"u. c #B45864",
"i. c #8D786E",
"p. c #AD6B75",
"a. c #925E53",
"s. c #CA554C",
"d. c #E65745",
"f. c #CB714A",
"g. c #EE6B43",
"h. c #DD5B62",
"j. c #D26F6A",
"k. c #BC893F",
"l. c #CA812E",
"z. c #D5892D",
"x. c #DA8C34",
"c. c #D59635",
"v. c #CB9639",
"b. c #F78729",
"n. c #F9962C",
"m. c #EC9A37",
"M. c #F79B36",
"N. c #EC8431",
"B. c #D5A03A",
"V. c #FCA82D",
"C. c #EDA43D",
"Z. c #FCAA37",
"A. c #FDB537",
"S. c #FFB02C",
"D. c #B58846",
"F. c #B39752",
"G. c #968568",
"H. c #A99E53",
"J. c #D48559",
"K. c #D09A4F",
"L. c #EE9653",
"P. c #D3B84C",
"I. c #D4BB56",
"U. c #D5AE4C",
"Y. c #E9B54D",
"T. c #F5B948",
"R. c #E7BA5A",
"E. c #F4B451",
"W. c #FFBD57",
"Q. c #F1A34E",
"!. c #D28B6E",
"~. c #DEB375",
"^. c #FBCA4B",
"/. c #FFD24A",
"(. c #FDCB5B",
"). c #FED856",
"_. c #EDC557",
"`. c #FFE75B",
"'. c #FCC664",
"]. c #FACE75",
"[. c #FFEA65",
"{. c #FFE677",
"}. c #D9C466",
"|. c #5F6987",
" X c #5B6A8B",
".X c #5C7196",
"XX c #656983",
"oX c #796A82",
"OX c #68728C",
"+X c #747D8D",
"@X c #627392",
"#X c #6C7A95",
"$X c #747E96",
"%X c #788196",
"&X c #788AA7",
"*X c #8B8F9D",
"=X c #8F8C91",
"-X c #B18899",
";X c #AC9C9C",
":X c #AF899E",
">X c #878EA3",
",X c #A69CAF",
"<X c #B8A7B7",
"1X c #ADA8A2",
"2X c #B0A899",
"3X c #D2B297",
"4X c #C6B4A8",
"5X c #C3ADBB",
"6X c #D1A7AA",
"7X c #EFB7AD",
"8X c #EAA496",
"9X c #F3C784",
"0X c #ECD18C",
"qX c #F6EA97",
"wX c #FCE782",
"eX c #DCD8B7",
"rX c #EDC8B4",
"tX c #FFE3AC",
"yX c #FFF3B4",
"uX c #DBC398",
"iX c #ADB4C7",
"pX c #CEBBC7",
"aX c #B3C3D6",
"sX c #DACBC2",
"dX c #DAD2C3",
"fX c #DBDAC7",
"gX c #D8CDD6",
"hX c #CDD1DB",
"jX c #E6CCD1",
"kX c #ECD4D5",
"lX c #FFEFD0",
"zX c #FCF3D7",
"xX c #FEF7C3",
"cX c #D1D8E5",
"vX c #FEFCE5",
"bX c #FBFBF8",
"nX c #F2E8ED",
"mX c #EDE0D9",
"MX c None",
/* pixels */
"MXMXMXMXMXMXMXMXH G S S MXMXMXMXMXMXMXMXMXMXH H MXMXMXMXMXMXMXMXMXMXMXMXMXMXMXMXMXMXMXMXMXMXMXMXMXMXMXMXMXMXMXMXMXMXMXMXMXMXMXMX",
"MXMXMXMXMXMXMXMXH P w.w.MXMXMXMXMXMXMXMXMXMXH H MXMXMXMXMXMXMXMXMXMXMXMXMXMXMXMXMXMXMXMXMXMXMXMXMXMXMXMXMXMXMXMXMXMXMXMXMXMXMXMX",
"MXMXMXMXMXMXMXMXG w.-X-Xw.S MXMXMXMXMXMXMXMXH H H H MXMXMXMXMXMXMXMXMXMXMXMXMXMXMXMXMXMXMXMXMXMXMXMXMXMXMXMXMXMXMXMXMXMXMXMXMXMX",
"MXMXMXMXMXMXMXMXG e.<X<Xy.S MXMXMXMXMXMXMXMXU U P H MXMXMXMXMXMXMXMXMXMXMXMXMXMXMXMXMXMXMXMXMXMXMXMXMXMXMXMXMXMXMXMXMXMXMXMXMXMX",
"MXMXMXMXMXMXMXMXS e.<X<Xw.Z MXMXMXMXMXMXG U ^ ^ U H MXMXMXMXG G H H MXMXMXMXMXMXMXMXMXMXMXMXMXMXMXMXMXMXMXMXMXMXMXMXMXMXMXMXMXMX",
"MXMXMXMXMXMXMXMXS e.5XpXp.8.MXMXMXMXMXMXH U ^ ^ U G MXMXMXMXL R P G MXMXMXMXMXMXMXMXMXMXMXMXMXMXMXMXMXMXMXMXMXMXMXMXMXMXMXMXMXMX",
"MXMXMXMXMXMXMXMXS u.gXcX,XoXm c MXMXMXMXMXMXU U MXMXMXMXG W @.@.L G MXMXMXMXMXMXMXMXMXMXMXMXMXMXMXMXMXMXMXMXMXMXMXMXMXMXMXMXMXMX",
"MXMXMXMXMXMXMXMXF y.jXnXaX>Xm x MXMXMXMXMXMXG G MXMXMXMXG W 3.3.W G MXMXMXMXMXMXMXMXMXMXMXMXMXMXMXMXMXMXMXMXMXMXMXMXMXMXMXMXMXMX",
"MXMXMXMXMXMXMXMXx oXgXbXcX,Xa.w MXMXMXMXMXMXMXMXMXMXMXMXA L 3.3.W G MXMXH H MXMXMXMXMXMXMXMXMXMXMXMXMXMXMXMXMXMXMXMXMXMXMXMXMXMX",
"MXMXMXMXMXMXMXMXc OXhXbXfX<Xp.w.MXMXMXMXMXMXMXMXMXMXMXMXR &.4.4.[ G MXMXH G MXMXMXMXMXMXMXMXMXMXMXMXMXMXMXMXMXMXMXMXMXMXMXMXMXMX",
"MXMXMXMXMXMXMXMXc OXhXzXqX0X4X:Xe.S Z A Y H MXMXMXMXG L @.4.n.4.[ G MXMXG H H H MXMXMXMXMXMXMXMXMXMXMXMXMXMXMXMXMXMXMXMXMXMXMXMX",
"MXMXMXMXMXMXMXMXl OXiXfXqXqXeX4Xp.u.u.u.7.G MXMXMXMX[ &.4.M.'.L.s.Y MXMXI I P G MXMXMXMXMXMXMXMXMXMXMXMXMXMXMXMXMXMXMXMXMXMXMXMX",
"MXMXMXMXMXMXMXMXMXMX X>XfXxXqXqXrXjXkX6Xw.G MXMXG [ 1.m.T.{.tX7Xh.) P Y ~ ~ U H MXMXMXMXMXMXH H MXMXMXMXMXMXMXMXMXMXMXMXMXMXMXMX",
"MXMXMXMXMXMXMXMXMXMXx oXhXzX{.{.yXvXmX6Xu.S MXMXG { m.^.{.yXvXmX8Xh.9.) %.%.T G MXMXMXMXMXMXH H MXMXMXMXMXMXMXMXMXMXMXMXMXMXMXMX",
"MXMXMXMXMXMXMXMXMXMXF y.gXlX'.^.{.0X!.u.MXMXMXMXS { Y.{.xXvXbXbXkX7Xh.( =.#.Q G MXMXMXMXH G G G MXMXMXMXMXMXMXMXMXMXMXMXMXMXMXMX",
"MXMXMXMXMXMXMXMXMXMXZ u.<XeX9X(.(.U.| w MXMXMXMXJ r.L.].yXvXbXbXvX7Xh.( =.@.L G MXMXMXMXH P I U MXMXMXMXMXMXMXMXMXMXMXMXMXMXMXMX",
"MXMXMXMXMXMXMXMXMXMXMXMXXX*XsXtX'.v.d x MXMXMXMXMXMXd.L.].yXvXzXqXQ.$.P R R MXMXMXMXMXMXG I ~ / I G MXMXMXMXMXMXMXMXMXMXMXMXMXMX",
"MXMXMXMXMXMXMXMXMXMXMXMXx oXhXlX'.c.i.N MXMXMXMXMXMXq.d.L.].rX7XL.N.<.r.r.} MXMXMXMXMXMXG R %.%.Q T MXMXMXMXMXMXMXMXMXMXMXMXMXMX",
"MXMXMXMXMXMXMXMXMXMXMXMXF y.gXlX'.A.I.H.y o MXMXMXMXMXMXd.d.j.u.d.g.Q.R.R.K.} J G H MXMXG Q =.;.%.9.MXMXMXMXMXMXMXMXMXMXMXMXMXMX",
"MXMXMXMXMXMXMXMXMXMXMXMXS u.5XeX9X'.).P.f 8 MXMXMXMXMXMX( ) S Y 7.d.T.`.`._.f.W P G MXMXG L @.=.-.q.MXMXMXMXMXMXMXMXMXMXMXMXMXMX",
"MXMXMXMXMXMXMXMXMXMXMXMXMXMXXX*XdXtX'.A.P.H.:   MXMXS S I I MXMXY s.m./.`.).C.1.E G MXMXMXMXW W MXMXMXMXMXMXMXMXMXMXMXMXMXMXMXMX",
"MXMXMXMXMXMXMXMXMXMXMXMXMXMXj |.iXdX9X(.).P.f y MXMXu.e.7.G MXMXA E 1.m.(.^.Q.4.&.R MXMXMXMXG G MXMXMXMXMXMXMXMXMXMXMXMXMXMXMXMX",
"MXMXMXMXMXMXMXMXMXMXMXMXMXMXMXMX X>XsXtX).T.P.F.| u.6X6Xw.G MXMXMXMXW <.C.Z.g.;.3.@.R G MXMXMXMXMXMXMXMXMXMXMXMXMXMXMXMXMXMXMXMX",
"MXMXMXMXMXMXMXMXMXMXMXMXMXMXMXMXx oXgXlX'.A./.Y.f.j.mXjXu.Z MXMXMXMXJ [ 1.5.d.-.;.3.$.[ MXMXMXMXMXMXMXMXMXMXMXMXMXMXMXMXMXMXMXMX",
"MXMXMXMXMXMXMXMXMXMXMXMXMXMXMXMXw y.gXlX'.S.A.T.Y.0XzXjXu.A MXMXMXMXMXMX[ [ q.q.q.;.5.1.[ G H H MXMXMXMXMXMXMXMXMXMXMXMXMXMXMXMX",
"MXMXMXMXMXMXMXMXMXMXMXMXMXMXMXMXS y.5XeX9XW.A.A./.{.zXpXu.Z MXMXMXMXMXMXG I ~ 0.d.;.M.M.<.E P G MXMXMXMXMXMXMXMXMXMXMXMXMXMXMXMX",
"MXMXMXMXMXMXMXMXMXMXMXMXMXMXMXMXMXMXXX*XdXtXW.Z.A.'.dXpXe.Z MXMXMXMXMXMXG H P Q =.6.M.Z.m.1.W G MXMXMXMXMXMXMXMXMXMXMXMXMXMXMXMX",
"MXMXMXMXMXMXMXMXMXMXMXMXMXMXMXMXMXMXj XXiXdX9XW.Z.E.3X2Xp.w.MXMXMXMXMXMXH H H W @.4.b.m.m.1.[ G MXMXMXMXMXMXMXMXMXMXMXMXMXMXMXMX",
"MXMXMXMXMXMXMXMXMXMXMXMXMXMXMXMXMXMXMXMX|.*XdXtX(.Z.E.~.4X:Xw.A MXMXMXMXH H MXMXW [ d.;.$.[ MXMXMXMXMXMXMXMXMXMXMXMXMXMXMXMXMXMX",
"MXMXMXMXMXMXMXMXMXMXMXMXMXMXMXMXMXMXMXMXz XXiXdX'.A.S.E.3X4Xt.{ MXMXMXMXH H MXMXG U ( ( R G MXMXMXMXMXMXMXMXMXMXMXMXMXMXMXMXMXMX",
"MXMXMXMXMXMXMXMXMXMXMXMXMXMXMXMXMXMXMXMXMXMX XG.}.^.A.Z.E.R.R.K.r.A MXMXMXMXMXMXG R #.=.Q J MXMXq.9.U H MXMXMXMXMXMXMXMXMXMXMXMX",
"MXMXMXMXMXMXMXMXMXMXMXMXMXMXMXMXMXMXMXMXMXMXz N H.I.R.E.S.A.^.E.f.| MXMXMXMXMXMXU Q #.@.R G MXMX0.~ U G MXMXMXMXMXMXMXMXMXMXMXMX",
"MXMXMXMXMXMXMXMXMXMXMXMXMXMXMXMXMXMXMXMXMXMXMXMXy C 2XuXE.V.n.M.Y.F.u o MXMXP R 9.~ Q R P H MXMXU U MXMXMXMXMXMXMXMXMXMXMXMXMXMX",
"MXMXMXMXMXMXMXMXMXMXMXMXMXMXMXMXMXMXMXMXMXMXMXMX  k $X1X~.Q.b.b._.F.d ; MXMXJ T 0.9.U H H H MXMXH H MXMXMXMXMXMXMXMXMXMXMXMXMXMX",
"MXMXMXMXMXMXMXMXMXMXMXMXMXMXMXMXMXMXMXMXMXMXMXMXMXMXh V 1X8XL.1.G.G.v.X.1 * w T 9.9.U G MXMXMXMXMXMXMXMXMXMXMXMXMXMXMXMXMXMXMXMX",
"MXMXMXMXMXMXMXMXMXMXMXMXMXMXMXMXMXMXMXMXMXMXMXMXMXMX  h %X2XL.j.i.i.J.D.v k r J ~ / U G MXMXMXMXMXMXMXMXMXMXMXMXMXMXMXMXMXMXMXMX",
"MXMXMXMXMXMXMXMXMXMXMXMXMXMXMXMXMXMXMXMXMXMXMXMXMXMXMXMXh N ;X3XJ.O.i.+X+XM 7 t J U MXMXMXMXMXMX# + + + MXMXMXMXMXMXMXMXMXMXMXMX",
"MXMXMXMXMXMXMXMXMXMXMXMXMXMXMXMXMXMXMXMXMXMXMXMXMXMXMXMX. h $X;XJ.f.B .X&X#Xn x r w MXMXMXMXMXMX+ & < 1 MXMXMXMXMXMXMXMXMXMXMXMX",
"MXMXMXMXMXMXMXMXMXMXMXMXMXMXMXMXMXMXMXMXMXMXMXMXMXMXMXMXMXMXh b =X=X@X X@X@XOXM 7 * MXMXMXMXMXMX+ ; _ _ 1 + MXMXMXMXMXMXMXMXMXMX",
"MXMXMXMXMXMXMXMXMXMXMXMXMXMXMXMXMXMXMXMXMXMXMXMXMXMXMXMXMXMXO g M +XG.B M OX&X#Xn g MXMXMXMXMXMXX 5 :.:.5 $ MXMXMXMXMXMXMXMXMXMX",
"MXMXMXMXMXMXMXMXMXMXMXMXMXMXMXMXMXMXMXMXMXMXMXMXMXMXMXMXMXMXMXMXg v D.K.B  X@X@X#XM g . MXMXMXMX$ 4 l.z.5 X MXMXMXMXMXMXMXMXMXMX",
"MXMXMXMXMXMXMXMXMXMXMXMXMXMXMXMXMXMXMXMXMXMXMXMXMXMXMXMXMXMXMXMX* 0 X.D.G.B XX@X&X$Xn g MXMXMXMX< p z.O.4 + MXMXMXMXMXMXMXMXMXMX",
"MXMXMXMXMXMXMXMXMXMXMXMXMXMXMXMXMXMXMXMXMXMXMXMXMXMXMXMXMXMXP G F r 0 a k.F.B  X@X#X$XM k X   1 _ :.>.| 2 + MXMXMXMXMXMXMXMXMXMX",
"MXMXMXMXMXMXMXMXMXMXMXMXMXMXMXMXMXMXMXMXMXMXMXMXMXMXMXMXMXMXG P I A * 3 ..D.i.@X X@X#XV y 3 1 p :.3.' q * + MXMXMXMXMXMXMXMXMXMX",
"MXMXMXMXMXMXMXMXMXMXMXMXMXMXMXMXMXMXMXMXMXMXMXMXMXMXMXMXMXMXG U ) 9.MXMX3 v +X&X@Xm l y o.l.:.+.@.' r * MXMXMXMXMXMXMXMXMXMXMXMX",
"MXMXMXMXMXMXMXMXMXMXMXMXMXMXMXMXMXMXMXMXMXMXMXMXMXMXMXMXMXMXH U 9.q.MXMXX g M OXm n 8 a c.n.,.] ' q * $ MXMXMXMXMXMXMXMXMXMXMXMX",
"MXMXMXMXMXMXMXMXMXMXMXMXMXMXMXMXMXMXMXMXMXMXMXMXMXMXMXMXMXMXH P MXMXMXMXMXMXg g , y ..z.b.,.p < ; ; MXMXMXMXMXMXMXMXMXMXMXMXMXMX",
"MXMXMXMXMXMXMXMXMXMXMXMXMXMXMXMXMXMXMXMXMXMXMXMXMXMXMXMXMXMXH H MXMXMXMXMXMX+ & - a z.n.,._ ; # # @ MXMXMXMXMXMXMXMXMXMXMXMXMXMX",
"MXMXMXMXMXMXMXMXMXMXMXMXMXMXMXMXMXMXMXMXMXMXMXMXMXMXMXMXMXMXP H MXMXMXMXMXMX  ;  .z.b.>.p ; - - - % @ + MXMXMXMXMXMXMXMXMXMXMXMX",
"MXMXMXMXMXMXMXMXMXMXMXMXMXMXMXMXMXMXMXMXMXMXMXMXMXMXMXMXMXMXP H MXMXMXMXMXMX; a c.Z.b.] < # - 6 6 > & & MXMXMXMXMXMXMXMXMXMXMXMX",
"MXMXMXMXMXMXMXMXMXMXMXMXMXMXMXMXMXMXMXMXMXMXMXMXMXMXMXMXMXMXMXMXMXMXMXMX$ 3 X.B.^._.5.D < # - 6 6 6 - % @ + MXMXMXMXMXMXMXMXMXMX",
"MXMXMXMXMXMXMXMXMXMXMXMXMXMXMXMXMXMXMXMXMXMXMXMXMXMXMXMXMXMXMXMXMXMXMXMX3 a c./.).Y.O.q * @ % - : 6 7 6 % & MXMXMXMXMXMXMXMXMXMX",
"MXMXMXMXMXMXMXMXMXMXMXMXMXMXMXMXMXMXMXMXMXMXMXMXMXMXMXMXMXMXMXMXMXMX+ 4 X.B._.)./.c.i * MXMX@ & > 4 9 9 6 % @ O MXMXX # - 6 MXMX",
"MXMXMXMXMXMXMXMXMXMXMXMXMXMXMXMXMXMXMXMXMXMXMXMXMXMXMXMXMXMXMXMXMXMX# u k.^.`.).Z.O.3 $ MXMX# @ % 6 9 e 9 6 % @ MXMX4 4 6 : MXMX",
"MXMXMXMXMXMXMXMXMXMXMXMXMXMXMXMXMXMXMXMXMXMXMXMXMXMXMXMXMXMXMXMXMXMX% d P.`.[.(.x._ ; X MXMXMXMX& % 6 9 e e 6 % # 3 X.X.u : MXMX",
"MXMXMXMXMXMXMXMXMXMXMXMXMXMXMXMXMXMXMXMXMXMXMXMXMXMXMXMXMXMXMXMXMXMX- s H.I.I.K.&._ r < MXMXMXMX+ @ % 6 9 9 6 = 2 a m.c.s : MXMX",
"MXMXMXMXMXMXMXMXMXMXMXMXMXMXMXMXMXMXMXMXMXMXMXMXMXMXMXMXMXMXMXMXMXMX: 8 s d d d | &.+._ <   MXMXMXMX@ % 6 : & 3  .c.V.c.s > MXMX",
"MXMXMXMXMXMXMXMXMXMXMXMXMXMXMXMXMXMXMXMXMXMXMXMXMXMXMXMXMXMXMXMXMXMX7 : > - > 0 q ] 4.,.p < MXMXMXMX+ # % ; 2 p c.A.S.2.e % MXMX",
"MXMXMXMXMXMXMXMXMXMXMXMXMXMXMXMXMXMXMXMXMXMXMXMXMXMXMXMXMXMXMXMXMXMXMXMXMXMXMXMX- i z.n.,._ 1 $ X + + + + < _ ,.M.V.n.:.5 # MXMX",
"MXMXMXMXMXMXMXMXMXMXMXMXMXMXMXMXMXMXMXMXMXMXMXMXMXMXMXMXMXMXMXMXMXMXMXMXMXMXMXMXX 4 X.x.b.,.p 4 1 1 ; ; ; q +.6.n.n.,._ 1 + MXMX",
"MXMXMXMXMXMXMXMXMXMXMXMXMXMXMXMXMXMXMXMXMXMXMXMXMXMXMXMXMXMXMXMXMXMXMXMXMXMXMXMXMXMXs ` z.n.c.2.:.] ' _ D ' &.3.6.,.p < MXMXMXMX",
"MXMXMXMXMXMXMXMXMXMXMXMXMXMXMXMXMXMXMXMXMXMXMXMXMXMXMXMXMXMXMXMXMXMXMXMXMXMXMXMXMXMX- s o.c.x.z.:.] ' D D D D D ] _ < X MXMXMXMX",
"MXMXMXMXMXMXMXMXMXMXMXMXMXMXMXMXMXMXMXMXMXMXMXMXMXMXMXMXMXMXMXMXMXMXMXMXMXMXMXMXMXMXMXMXs s s i 5 1 < * < < ; < 1 1 MXMXMXMXMXMX",
"MXMXMXMXMXMXMXMXMXMXMXMXMXMXMXMXMXMXMXMXMXMXMXMXMXMXMXMXMXMXMXMXMXMXMXMXMXMXMXMXMXMXMXMX: : : = # $ $ # + O + O $ $ MXMXMXMXMXMX"
};
