/* XPM */
static char *result[] = {
/* columns rows colors chars-per-pixel */
"64 64 207 2 ",
"   c #160D1E",
".  c #180F1E",
"X  c #190B17",
"o  c #18101E",
"O  c #170F20",
"+  c #171324",
"@  c #181222",
"#  c #181A2C",
"$  c #161D35",
"%  c #171F39",
"&  c #192031",
"*  c #16213C",
"=  c #18263C",
"-  c #152542",
";  c #132C4C",
":  c #122947",
">  c #1B3B4A",
",  c #153849",
"<  c #0D2F55",
"1  c #122E51",
"2  c #133253",
"3  c #143C55",
"4  c #14345C",
"5  c #1A3F55",
"6  c #0E3A67",
"7  c #113B65",
"8  c #123C6A",
"9  c #123761",
"0  c #133F71",
"q  c #1C404F",
"w  c #1C4353",
"e  c #1B4659",
"r  c #2B4A58",
"t  c #154668",
"y  c #1B5168",
"u  c #134174",
"i  c #11447E",
"p  c #114F78",
"a  c #245E7B",
"s  c #33506E",
"d  c #1D6374",
"f  c #296E7C",
"g  c #454859",
"h  c #504451",
"j  c #466A7A",
"k  c #55737E",
"l  c #0C4985",
"z  c #0E4F88",
"x  c #094381",
"c  c #104582",
"v  c #124B83",
"b  c #114D88",
"n  c #0E518A",
"m  c #12538E",
"M  c #185988",
"N  c #075E9A",
"B  c #0D5A9B",
"V  c #0C5A95",
"C  c #105291",
"Z  c #16668E",
"A  c #09619B",
"S  c #16679A",
"D  c #156B9D",
"F  c #186894",
"G  c #3E6F9F",
"H  c #0D5EA1",
"J  c #0869A9",
"K  c #0965A5",
"L  c #1272A9",
"P  c #0A6CB3",
"I  c #056CB4",
"U  c #0675BC",
"Y  c #0977B8",
"T  c #127CB4",
"R  c #1675B5",
"E  c #156EAA",
"W  c #3B77A9",
"Q  c #2174A3",
"!  c #4976A4",
"~  c #426B8F",
"^  c #0676C0",
"/  c #047BC4",
"(  c #037DC9",
")  c #1A8C9C",
"_  c #238E9C",
"`  c #0C84BC",
"'  c #1B8EB6",
"]  c #1782B7",
"[  c #1B91BA",
"{  c #1985AD",
"}  c #2395A2",
"|  c #2398AD",
" . c #1DA2BE",
".. c #22A7BD",
"X. c #31A8BD",
"o. c #4489AF",
"O. c #498EB7",
"+. c #0A86C7",
"@. c #0184D5",
"#. c #0187D9",
"$. c #028BDB",
"%. c #0997D9",
"&. c #0C90CE",
"*. c #3199DB",
"=. c #3394CB",
"-. c #1DA6C5",
";. c #1DADCB",
":. c #1FABC6",
">. c #1BB6DB",
",. c #1EB2D5",
"<. c #22A7C6",
"1. c #21AAC9",
"2. c #28BCCA",
"3. c #28B9C5",
"4. c #29AED4",
"5. c #008EE5",
"6. c #008FE8",
"7. c #0095E9",
"8. c #099CE8",
"9. c #059DF1",
"0. c #0CAAEC",
"q. c #09A4EB",
"w. c #15ABEF",
"e. c #0FB2ED",
"r. c #15B6EA",
"t. c #07A7F1",
"y. c #11B7F0",
"u. c #2DA7EE",
"i. c #34AAEE",
"p. c #38AAEC",
"a. c #2DA9F1",
"s. c #31A9F1",
"d. c #38BCF1",
"f. c #34B3E9",
"g. c #49AED2",
"h. c #44BEF1",
"j. c #27C4D7",
"k. c #1BC6E8",
"l. c #1AD0ED",
"z. c #1AC7F0",
"x. c #1BCAF1",
"c. c #12C1F7",
"v. c #20C2E2",
"b. c #23CCE2",
"n. c #22DFEF",
"m. c #23D7F2",
"M. c #23D8F2",
"N. c #2ADDF6",
"B. c #2DCEEB",
"V. c #2AE4F4",
"C. c #2CE9F5",
"Z. c #26E3F7",
"A. c #35EFF9",
"S. c #52C1CB",
"D. c #4CC7D2",
"F. c #4FC9D4",
"G. c #48C7DD",
"H. c #59C9D3",
"J. c #47DBF5",
"K. c #50CFE4",
"L. c #66C2F2",
"P. c #6BC2F3",
"I. c #4EEEF9",
"U. c #4CE7F4",
"Y. c #57EAF8",
"T. c #52F0F8",
"R. c #5EF2FA",
"E. c #61EDF7",
"W. c #7DEEF8",
"Q. c #77F0F8",
"!. c #7DF2F9",
"~. c #A49BA3",
"^. c #ACA1A6",
"/. c #9EAFC3",
"(. c #9EB5C8",
"). c #A5BAD0",
"_. c #9DC1D5",
"`. c #A6C9D1",
"'. c #9DCAE1",
"]. c #98D4F6",
"[. c #98CDF0",
"{. c #A0D9E6",
"}. c #8BF9FF",
"|. c #86F3FA",
" X c #9CE4F9",
".X c #A7EDF1",
"XX c #A6E6F8",
"oX c #B3EBFA",
"OX c #BEE4FA",
"+X c #ACF5FB",
"@X c #AAF9FC",
"#X c #B3F6FB",
"$X c #BAF9FB",
"%X c #CDD6D8",
"&X c #D1D9DA",
"*X c #CBD8E6",
"=X c #CBEBF8",
"-X c #D3ECFC",
";X c #CCF7FB",
":X c #D4FAFD",
">X c #DCFDFE",
",X c #D1F2F3",
"<X c #EEFDFE",
"1X c #E1FEFE",
"2X c #F4FDFE",
"3X c white",
"4X c None",
/* pixels */
"b b v v l l l l 4X4X4X4X4X4X4X4X4X4X4X4X4X4X4X4X4X4X4X4X4X4X4X4X4X4X4X4X4X4X4X4X4X4X4X4X4X4X4X4X4X4X4X4X4X4X4X4X4X4X4X4X4X4X4X4X",
"b m S Q W ! ! G 4X4X4X4X4X4X4X4X4X4X4X4X4X4X4X4X4X4X4X4X4X4X4X4X4X4X4X4X4X4X4X4X4X4X4X4X4X4X4X4X4X4X4X4X4X4X4X4X4X4X4X4X4X4X4X4X",
"l D -.G.'.*X*X(.! i 4X4X4X4X4X4X4X4X4X4X4X4X4X4X4X4X4X4X4X4X4X4X4X4X4X4X4X4X4X4X4X4X4X4X4X4X4X4X4X4X4X4X4X4X4X4X4X4X4X4X4X4X4X4X",
"H ] G.|.>X3X2X*XO.D 4X4X4X4X4X4X4X4X4X4X4X4X4X4X4X4X4X4X4X4X4X4X4X4X4X4X4X4X4X4X4X4X4X4X4X4X4X4X4X4X4X4X4X4X4X4X4X4X4X4X4X4X4X4X",
"( *.].>X2X3X3X;XK.-.D c 4X4X4X4X4X4X4X4X4X4X4X4X4X4X4X4X4X4X4X4X4X4X4X4X4X4X4X4X4X4X4X4X4X4X4X4X4X4X4X4X4X4X4X4X4X4X4X4X4X4X4X4X",
"9.p.OX3X3X3X3X;XR.v.] B 4X4X4X4X4X4X4X4X4X4X4X4X4X4X4X4X4X4X4X4X4X4X4X4X4X4X4X4X4X4X4X4X4X4X4X4X4X4X4X4X4X4X4X4X4X4X4X4X4X4X4X4X",
"7.p.=X2X3X3X3X;XR.l.%.^ B v 4X4X4X4X4X4X4X4X4X4X4X4X4X4X3X3X4X4X4X4X4X4X4X4X4X4X4X4X4X4X4X4X4X4X4X4X4X4X4X4X4X4X4X4X4X4X4X4X4X4X",
"6.i.].=X;X;X;X#X!.J.w.@.P B 4X4X4X4X4X4X4X4X4X4X4X4X4X4X3X3X4X4X4X4X4X4X4X4X4X4X4X4X4X4X4X4X4X4X4X4X4X4X4X4X4X4X4X4X4X4X4X4X4X4X",
"4X4Xp.h.U.R.R.!.$X Xa.5.@.U B c 4X4X4X4X4X4X4X4X4X4X3X3X3X3X3X3X4X4X4X4X4X4X4X4X4X4X4X4X4X4X4X4X4X4X4X4X4X4X4X4X4X4X4X4X4X4X4X4X",
"4X4X5.8.,.b.n.I.@XoXL.u.8.$.T D 4X4X4X4X4X4X4X4X4X4X3X3X3X3X3X3X4X4X4X4X4X4X4X4X4X4X4X4X4X4X4X4X4X4X4X4X4X4X4X4X4X4X4X4X4X4X4X4X",
"4X4X4X4XE ' f.A.I.Q.oX[.u.8.>.1.D c 4X4X4X4X4X4X4X4X4X4X3X3X4X4X4X4X4X4X4X4X4X4X4X4X4X4X4X4X4X4X4X4X4X4X4X4X4X4X4X4X4X4X4X4X4X4X",
"4X4X4X4Xc S <.B.U.|.>X-XP.d.V.b.' D 4X4X4X4X4X4X4X4X4X4X3X3X4X4X4X4X4X4X4X4X4X4X4X4X4X4X4X4X4X4X4X4X4X4X4X4X4X4X4X4X4X4X4X4X4X4X",
"4X4X4X4X4X4XD X.{.1X2X2X-X XU.Z.b.<.D c 4X4X4X4X4X4X4X4X4X4X4X4X4X4X4X4XC.C.4X4X4X4X4X4X4X4X4X4X4X4X4X4X4X4X4X4X4X4X4X4X4X4X4X4X",
"4X4X4X4X4X4Xx ! '.-X2X3X3X>X|.I.A.b.T B 4X4X4X4X4X4X4X4X4X4X4X4X4X4X4X4XC.C.4X4X4X4X4X4X4X4X4X4X4X4X4X4X4X4X4X4X4X4X4X4X4X4X4X4X",
"4X4X4X4X4X4X4X4X*.P.=X3X3X2X>X.XT.l.%.U B v 4X4X4X4X4X4X4X4X4X4X4X4XC.C.C.C.C.C.4X4X4X4X4X4X4X4X4X4X4X4X4X4X4X4X4X4X4X4X4X4X4X4X",
"4X4X4X4X4X4X4X4X6.p.].=X2X3X3X:X|.J.w.@.P B 4X4X4X4X4X4X4X4X4X4X4X4XC.C.C.C.V.C.4X4X4X4X4X4X4X4X4X4X4X4X4X4X4X4X4X4X4X4X4X4X4X4X",
"4X4X4X4X4X4X4X4X4X4Xi.P.=X3X3X2X>X Xa.5.@.^ B v 4X4X4X4X4X4X4X4X4X4X4X4XC.C.4X4X4X4X4X4X4X4X4X4X4X4X4X4X4X4X4X4X4X4X4X4X4X4X4X4X",
"4X4X4X4X4X4X4X4X4X4X5.i.].=X;X:X:XoXL.u.8.#.P C 4X4X4X4X4X4X4X4X4X4X4X4XC.C.4X4X4X4X4X4X4X4X4X4X4X4X4X4X4X4X4X4X4X4X4X4X4X4X4X4X",
"4X4X4X4X4X4X4X4X4X4X4X4Xi.h.Y.R.R.W.oX[.i.5.#.J 1 X 4X4X@ @ @ + 4X4X4X4X4X4X4X4X4X4X4X4X4X4X4X4X4X4X4X4XC.C.4X4XC.C.4X4X4X4X4X4X",
"4X4X4X4X4X4X4X4X4X4X4X4X6.8.,.k.n.T.+XoXL.i.9./ p ; 4X4X% $ # @ 4X4X4X4X4X4X4X4X4X4X4X4X4X4X4X4X4X4X4X4XC.V.4X4XV.C.4X4X4X4X4X4X",
"4X4X4X4X4X4X4X4X4X4X4X4X4X4XL ' b.A.T.W.oX].i.$.( N ; $ 4 4 $ @ 4X4X4X4X4X4X4X4X4X4X4X4X4X4X4X4X4X4XV.C.C.M.0.0.m.C.C.C.4X4X4X4X",
"4X4X4X4X4X4X4X4X4X4X4X4X4X4Xc D ;.j.Z.T.@XoXL.a.9./ 7 ; m z - @ 4X4X4X4X4X4X4X4X4X4X4X4X4X4X4X4X4X4XC.V.M.x.e.e.z.m.V.C.4X4X4X4X",
"4X4X4X4X4X4X4X4X4X4X4X4X4X4X4X4XD ' b.A.I.|.oX].s.( n z U J ; @ 4X4X4X4X4X4X4X4X4X4X4X4X4X4X4X4X4X4X4X4X0.e.x.x.e.0.4X4X4X4X4X4X",
"4X4X4X4X4X4X4X4X4X4X4X4X4X4X4X4Xc D <.b.M.T.@XoXL.*.E I #.Y 2 . 4X4X4X4X4X4X4X4X4X4X4X4X4X4X4X4X4X4X4X4X0.e.x.x.e.0.4X4X4X4X4X4X",
"4X4X4X4X4X4X3X3X4X4X3X3X4X4X4X4X4X4XD ' b.A.T.|.oX[.*.#.5.Y 2 . 4X4X@ @ + + 4X4X4X4X4X4X4X4X4X4X4X4XC.V.M.z.e.e.z.M.V.C.4X4X4X4X",
"4X4X4X4X4X4X3X<X4X4X<X3X4X4X4X4X4X4Xc D <.v.l.J.+XoXL.a.9.^ 7 $ 4X4X$ $ # @ 4X4X4X4X4X4X4X4X4X4X4X4XV.C.C.M.0.0.M.C.C.V.4X4X4X4X",
"4X4X4X4X3X3X3X:XE.E.:X3X3X3X4X4X4X4X4X4XS R %.r.J.|.oX].i.( m 9 $ % 9 4 $ @ 4X4X4X4X4X4X4X4X4X4X4X4X4X4XC.V.4X4XV.C.4X4X4X4X4X4X",
"4X4X4X4X3X2X:X+XQ.Q.+X:X2X3X4X4X4X4X4X4X! O.*.d.N.I.+X].d.%.H 0 ; 1 m v - @ 4X4X4X4X4X4X4X4X4X4X4X4X4X4XC.C.4X4XC.C.4X4X4X4X4X4X",
"4X4X4X4X4X4XE.Q.#X#XQ.E.4X4X4X4X4X4Xl ! ).*X=XXXI.N.d.d.m.,.D c 0 m Y J ;   4X4X4X4X4X4X4X4X4X4X4X4X4X4X4X4X4X4X4X4X4X4X4X4X4X4X",
"4X4X4X4X4X4XE.Q.#X#XQ.E.4X4X4X4X4X4Xl ! (.*X*X'.g.;.%.t.x.>.' S m H $.^ t $ 4X4X4X4X4X4X4X4X4X4X4X4X4X4X4X4X4X4X4X4X4X4X4X4X4X4X",
"4X4X4X4X3X2X:X+XW.Q.+X:X2X3X4X4X4X4Xb M G ! ! ~ y p +.9.t.r.>.<.F H $.@.C 9 % @ 4X4X4X4X4X4X4X4X4X4X4X4X4X4X4X4X4X4X4X4X4X4X4X4X",
"4X4X4X4X3X3X3X:XR.R.:X3X3X3X4X4X4X4Xb b l l C 0 # ; N U ( 8.x.v.' L / ^ H 8 * @ 4X4X4X4X4X4X4X4X4X4X4X4X4X4X4X4X4X4X4X4X4X4X4X4X",
"4X4X4X4X4X4X3X<X4X4X<X3X4X4X4X4X4X4X4X4X4X4X4X4X4X4X; 3 n P %.e.v.1.L B C 0 % @ . . 4X4X. O @ + 4X4X4X4X4X4X4X4X4X4X4X4X4X4X4X4X",
"4X4X4X4X4X4X3X3X4X4X3X3X4X4X4X4X4X4X4X4X4X4X4X4X4X4Xq y Z R $.t.x.v.' S m 0 % $ > e 4X4Xw > & @ 4X4X4X4X4X4X4X4X4X4X4X4X4X4X4X4X",
"4X4X4X4X4X4X4X4X4X4X4X4X4X4X4X4X4X4X4X4X4X4X4X4X. w } j.j.>.8.9.t.e.v.1.S 7 $ > _ } q w } _ q @ 4X4X4X4X4X4X4X4X4X4X4X4X4X4X4X4X",
"4X4X4X4X4X4X4X4X4X4X4X4X4X4X4X4X4X4X4X4X4X4X4X4XO > _ 2.2.1.&.#.6.t.x.v.[ M = e 2.2.y t 1.1.e   4X4X4X4X4X4X4X4X4X4X4X4X4X4X4X4X",
"4X4X4X4X4X4X4X4X4X4X4X4X4X4X4X4X4X4X4X4X4X4X4X4X@ $ > e e y m I #.9.t.e.v.| > e 2.b.Z m %.+.3 . 4X4X4X4X4X4X4X4X4X4X4X4X4X4X4X4X",
"4X4X4X4X4X4X4X4X4X4X4X4X4X4X4X4X4X4X4X4X4X4X4X4X+ + o .   $ 4 p K U U ` <.} 5 e _ ..{ L P N 1 . 4X4X4X4X4X4X4X4X4X4X4X4X4X4X4X4X",
"4X4X4X4X4X4X4X4X4X4X4X4X4X4X4X4X4X4X4X4X4X4X4X4X4X4X4X4X4X4X$ - ; < 1 1 5 e u 8 w d  . .y ; 4X4X    . @ @ + 4X4X4X4X4X4X4X4X4X4X",
"4X4X4X4X4X4X4X4X4X4X4X4X4X4X4X4X4X4X4X4X4X4X4X4X4X4X4X4X4X4X@ @ @ # > r h g t 8 w f F.F.f , 4X4Xw e 3 ; $ @ 4X4X4X4X4X4X4X4X4X4X",
"4X4X4X4X4X4X4X4X4X4X4X4X4X4X4X4X4X4X4X4X4X4X4X4X4X4X4X4X4X4X4X4X. , _ S.`.~.g 3 ) D..X.XD.) , > } 1.+.N : @ 4X4X4X4X4X4X4X4X4X4X",
"4X4X4X4X4X4X4X4X4X4X4X4X4X4X4X4X4X4X4X4X4X4X4X4X4X4X4X4X4X4X4X4X  w } F.XX_.j f D.|.>X>X}.H.k j X.>.+.A ; o 4X4X4X4X4X4X4X4X4X4X",
"4X4X4X4X4X4X4X4X4X4X4X4X4X4X4X4X4X4X4X4X4X4X4X4X4X4X4X4X4X4X4X4X4X4X> f =.f.2.D..X1X2X2X1X,X&X(.o.Z t ; 4X4X4X4X4X4X4X4X4X4X4X4X",
"4X4X4X4X4X4X4X4X4X4X4X4X4X4X4X4X4X4X4X4X4X4X4X4X4X4X4X4X4X4X4X4X4X4X, a =.f.4.D..X1X2X2X1X,X&X(.W n 6 ; 4X4X4X4X4X4X4X4X4X4X4X4X",
"4X4X4X4X4X4X4X4X4X4X4X4X4X4X7.7.4X4X4X4X4X4X4X4X4X4X4X4X4X4X4X4XO w } F..X_.j f D.}.>X>X|.H.k s T @./ A 2   4X4X4X4X4X4X4X4X4X4X",
"4X4X4X4X4X4X4X4X4X4X4X4X4X4X7.7.4X4X4X4X4X4X4X4X4X4X4X4X4X4X4X4XO , _ g.`.^.h , ) H.,X,XH.) 3 < N U U A : o 4X4X4X4X4X4X4X4X4X4X",
"4X4X4X4X4X4X4X4X4X4X4X4X7.7.7.7.7.7.4X4X4X4X4X4X4X4X4X4X4X4X4X4X+ $ , r g g 4X4X, k %X%Xk e 6 8 3 2 2 : # @ 4X4X4X4X4X4X4X4X4X4X",
"4X4X4X4X4X4X4X4X4X4X4X4X7.7.7.7.7.7.4X4X4X4X4X4X4X4X4X4X4X4X4X4X+ + @ .     4X4X, j /./.s 2 8 7 - = : ; * * 4X4X4X4X4X4X4X4X4X4X",
"4X4X4X4X4X4X4X4X4X4X4X4X4X4X7.7.4X4X4X4X4X4X4X4XC.V.4X4XC.C.4X4X4X4X4X4X4X4X. e } X.o.W R A 4 - 4 i K K v 4 $ @ 4X4X4X4X4X4X4X4X",
"4X4X4X4X4X4X4X4X4X4X4X4X4X4X7.7.4X4X4X4X4X4X4X4XC.V.4X4XV.C.4X4X4X4X4X4X4X4X. e 2.j.Z n %.+.2 = M ` q.8.Y v - o 4X4X4X4X4X4X4X4X",
"4X4X4X4X4X4X4X4X4X4X4X4X4X4X4X4X4X4X4X4X4X4XC.C.C.m.0.0.m.C.C.C.4X4X4X4X4X4X  e j.2.y y 1.1.5 > | b.n.k.%.K :   4X4X4X4X4X4X4X4X",
"4X4X4X4X4X4X4X4X4X4X4X4X4X4X4X4X4X4X4X4X4X4XC.V.M.x.e.e.z.m.V.C.4X4X4X4X4X4X@ > ) } q q } _ > w -.Z.C.N.c.+.8 $ 4X4X4X4X4X4X4X4X",
"4X4X4X4X4X4X4X4X4X4X4X4X4X4X4X4X4X4X4X4X4X4X4X4X0.e.x.x.e.0.4X4X4X4X4X4X4X4X@ & > w 4X4Xw > # 2 +.c.N.C.Z.>.Z 4 $ o 4X4X4X4X4X4X",
"4X4X4X4X4X4X4X4X4X4X4X4X4X4X4X4X4X4X4X4X4X4X4X4X0.e.x.x.e.0.4X4X4X4X4X4X4X4X+ + .   4X4X. . . 1 N ` -.2.2.,.T m 1 $ 4X4X4X4X4X4X",
"4X4X4X4X4X4X4X4X4X4X4X4X4X4X4X4X4X4X4X4X4X4XC.V.M.x.e.e.k.M.V.C.4X4X4X4X4X4X4X4X4X4X4X4X4X4X4X4X; 2 w y S R +.^ m 4 $ o 4X4X4X4X",
"4X4X4X4X4X4X4X4X4X4X4X4X4X4X4X4X4X4X4X4X4X4XV.C.C.M.0.0.M.C.C.C.4X4X4X4X4X4X4X4X4X4X4X4X4X4X4X4X@ .   # 4 z ^ ( P b 2 $ 4X4X4X4X",
"4X4X4X4X4X4X4X4X4X4X4X4X4X4X4X4X4X4X4X4X4X4X4X4XC.V.4X4XV.C.4X4X4X4X4X4X4X4X4X4X4X4X4X4X4X4X4X4X4X4X4X4X# 1 m P +.^ m 4 $ @ 4X4X",
"4X4X4X4X4X4X4X4X4X4X4X4X4X4X4X4X4X4X4X4X4X4X4X4XC.C.4X4XC.C.4X4X4X4X4X4X4X4X4X4X4X4X4X4X4X4X4X4X4X4X4X4X@ $ 4 b ^ / H u ; % 4X4X",
"4X4X4X4X4X4X4X4X4X4X4X4X4X4X4X4X4X4X4X4X4X4X4X4X4X4X4X4X4X4X4X4X4X4X4X4X4X4X4X4X4X4X4X4X4X4X4X4X4X4X4X4X4X4X$ 2 b H C v u 4 * @ ",
"4X4X4X4X4X4X4X4X4X4X4X4X4X4X4X4X4X4X4X4X4X4X4X4X4X4X4X4X4X4X4X4X4X4X4X4X4X4X4X4X4X4X4X4X4X4X4X4X4X4X4X4X4X4X. % 4 u b m C u * o ",
"4X4X4X4X4X4X4X4X4X4X4X4X4X4X4X4X4X4X4X4X4X4X4X4X4X4X4X4X4X4X4X4X4X4X4X4X4X4X4X4X4X4X4X4X4X4X4X4X4X4X4X4X4X4X4X4X% ; u m C u * @ ",
"4X4X4X4X4X4X4X4X4X4X4X4X4X4X4X4X4X4X4X4X4X4X4X4X4X4X4X4X4X4X4X4X4X4X4X4X4X4X4X4X4X4X4X4X4X4X4X4X4X4X4X4X4X4X4X4X. % 9 0 u 4 $ @ ",
"4X4X4X4X4X4X4X4X4X4X4X4X4X4X4X4X4X4X4X4X4X4X4X4X4X4X4X4X4X4X4X4X4X4X4X4X4X4X4X4X4X4X4X4X4X4X4X4X4X4X4X4X4X4X4X4X4X4X* * = $ # @ ",
"4X4X4X4X4X4X4X4X4X4X4X4X4X4X4X4X4X4X4X4X4X4X4X4X4X4X4X4X4X4X4X4X4X4X4X4X4X4X4X4X4X4X4X4X4X4X4X4X4X4X4X4X4X4X4X4X4X4X@ @ @ @ + + "
};
