/* XPM */
static char *result[] = {
/* columns rows colors chars-per-pixel */
"64 64 62 1 ",
"  c #3B9CFB",
". c #3FA0F7",
"X c #3FA0F8",
"o c #41A2F7",
"O c #4BACF7",
"+ c #44A1FB",
"@ c #4CA6FB",
"# c #47A8F8",
"$ c #48AAF8",
"% c #4EB0F6",
"& c #50B2F5",
"* c #5CBDF4",
"= c #54B2F8",
"- c #58B2F8",
"; c #60BFF4",
": c #66B2FC",
"> c #7DBDFC",
", c #65C1F5",
"< c #6BC4F6",
"1 c #6BC5F8",
"2 c #6FC8F8",
"3 c #73C6F6",
"4 c #77C8F6",
"5 c #7BCAF6",
"6 c #70C7F8",
"7 c #75CBFA",
"8 c #7CCEFA",
"9 c #7FD1FF",
"0 c #85CDF6",
"q c #82C4FA",
"w c #83CFF9",
"e c #9ACCFD",
"r c #8DD1F7",
"t c #82D2FF",
"y c #8BD6FE",
"u c #8ED8FF",
"i c #92D2F7",
"p c #93D5FC",
"a c #9BD7F9",
"s c #94DBFF",
"d c #9ADEFF",
"f c #AAD6FC",
"g c #A3DDFE",
"h c #ACDEFA",
"j c #9FE1FF",
"k c #A4E2FF",
"l c #ABE2FF",
"z c #B3E2FC",
"x c #BCE5FC",
"c c #BBE9FF",
"v c #C1E6FC",
"b c #C4E9FE",
"n c #CCEBFD",
"m c #D2EDFD",
"M c #D7F0FE",
"N c #DBF1FD",
"B c #E4F4FE",
"V c #E9F7FE",
"C c #ECF8FE",
"Z c #F3FAFE",
"A c #FBFDFF",
"S c None",
/* pixels */
"SSSSSSSSSSSSSSSSSSSSSSSSSSSSSSSSSSSSSSSSSSSSSSSSSSSSSSSSSSSSSSSS",
"SSSSSs7************************************;******;***;*,uSSSSSS",
"SSSSij5*******************;***********;*****************,sjSSSSS",
"SSSpjjj,***************************;**********;*********1jjuSSSS",
"SSpjjjb,************************************************<djjjSSS",
"SsdjjkM5************************************************<jjjjjSS",
"ydkllcVz455544733<<3<<2222,2<2<<,,,,,,,;;*******;;****;*2ddsdsuS",
"*<rznCAAZZZCCCBBNBNmmmnbbvxxvxxzzzkgddpyyt778yttt7777777322<,,,S",
"****,iVbkggdgdddsdsppyyyyyyjjjjjjjjjjjjjjyttsjjjuttttttt7******S",
"*****3Ng9t9999wwt9t9tttt99ujjjjjjjjjjjjjsttyjjjjtttttttt7******S",
"*****3mgtttttttttttttttttyjjjjjjjjjjjjjjy9yjjjjytttttttt7******S",
"*****<mgtttttttttttttttttsjjjjkjjjjjjjju9tyjjjuttttttt999******S",
"*****;mgtttttttttttttt9tyjjjjjjjjjjjjjjttyjjjsy9tttttt9yy;*****S",
"****;<na9tttttttttttttttjjjjjjjjjjjjjjyttsjjjy9ttttttttsy,*****S",
"*****;bstttttttttttttt9sjjjjjjjjjjjjjsttujjjst9ttttt99yjy,*****S",
"*****;vsttttttttttttt9tjjjjjjjjjkjjjjt9tjjjjy9tttttt99jky******S",
"******xittttttttttttttjjjjjjjjjjjjjju99yjjjuttttttt99yjjy,*****S",
"******xpttttttttttt9tyjjjjjjjjjjjjjst9yjjjjytttttttttjjju******S",
"******zu9ttttttttttttsjjjjjjjjjjjjjyttjjjju99ttttt9tsjjju,*****S",
"******hutttttttttt9tsjjjjjjjjjjjjjuttsjjjutttttttttyjjjju******S",
"******fyttttttttttttjjjjjjjjjjjjjjt9tjjjjy99tttttttjjjjjy******S",
"******ay9ttttttttttjjjjjjjjjjjjjjuttujjjy9ttttttttyjjjjjs,*****S",
"******iytttttttt9tyjjjjjjjjjjjjjjt9yjjjjtttttttt9tjjjjjjy******S",
"******0ytttttttt9yjjjkjjjjjjjjjjt9tjjjjyt9ttttt9tjjjjjjj9******S",
"******ty9ttttttttsjjjjkjjjjjjjjuttujjjuttttttttttjjjjjju7******S",
"******5t9tttttttyjjjjjjjjjjjjjj99yjjjjttttttttttjjjjjjjy7******S",
"******3tttttttttjjjjjjjjjjjjjjyttsjjjytttttttttujjjjjjut7******S",
"******2ttttttttyjjjjjjjjjjjjjjttyjjjjtttttttt9yjjjjjjjtt7******S",
"******<9ttttttyjjjjjjjjjjjjjj99tsjjjy9tttttt99ujjjjjj99t7****;*S",
"******,tttttttsjjjjjjjjjjjjju99yjjjs99tttttttyjjjjjjjt9t7******S",
"******,9ttt9tyjjjjjjjjjjjjjjttujjjjtttttttt9yjjjjjjjy9tt7*****;S",
"******<9tttttdjjjjjjjjjjjkjy9tjjjjyttttttt99ujjjjjjy9tt97;****;S",
"******19tt99jjjjjjjjjjjjjjsttyjjjstttttttttyjjjjjju9tttt7******S",
"******19tt99jjjjjjjjjjjjjjtttsjjjy9tttttt9tjjjjjjjy9tttt7******S",
"******,9tt9jjjjjjjjjjjjjjy9tsjjjytttttttttujjjjjjst9tttt7*****;S",
"******19t9yjjjjjjjjjjjjjjt9yjkjjtttttttt9tjjjjjjjttttttt7;***;*S",
"******,9tyjjjjkjjkjjjjjjyttjjjjytttttttt9ujjjjjjy9tttttt7******S",
"******19tsjjjjjjjjjjjjjs9tyjjjuttttttt9tyjjjjjjut9tttttt7*****;S",
"******,9tjjjjjjjjjjjjjjt9tjjjjyt9tttttttjjjjjjjy9ttttttt7******S",
"******19jjjjjjjjjjjjjjyttsjjju9ttttttttujjjjjjut9ttttttt7;***;*S",
"******,ujjjjjjjjjjjjjj99yjjjst9tttttttyjjjjjjj99tttttttt7******S",
"******<jjjjjjjjjjjjjjt9tsjjjy9ttttttttsjjjjjjy9ttttttttt9;*****S",
"******2jjjjjjkjjjjkju9tujjjstttttttttyjjjjjjstttttttttt9y,*****S",
"******7jjjjjjjjjjjjjy9yjjjjy9ttttttttsjjjjjjttttttttttttp,*****S",
"******7jjjjjjjjjjjjy9tjjjjytttttttttsjjjjjjyttttttttttttk,****;S",
"******7jjkjjjjjjjjst9yjjjsttttttt9tyjjjjjjstttttttttttt9z1****;S",
"******7jjjjjjjjjjjy99jjjjytttttttttsjjjjjjytttttttttttttx4*****S",
"******4jjjjjjjjjjut9ujjjst9tttttttyjjjjjju99ttttttttttttb5***;*S",
"******7jjjjjjjjjstttjjjjttttttttttjjjjjjdtttttttttttttttn0*****S",
"******7jjjjjjjjjyttjjjkyt9tttttttujkjjjjyt9ttttttttttt9ynr*****S",
"******7jjjjjjjjjttyjjjstttttttttyjjjjjjsttttttttttttttwyMa*****S",
"******7jjjjjjjj8ttjjjjttttttttttjjjjjjjttttttttttttttt9uNa*****S",
"******4jjjjjjjy8tsjjjpttttttt9tyjjjjjjyttttttttttttttt9pBg*****S",
"******3jjjjjjjt9yjjjjt9ttttttttjjjjjjjtttttttttttttttttsBh*****S",
"******3jjjjjju9tsjjjy9ttttttttsjjjjjjyt9tttttttttttttt9sCz*****S",
"******4jjjjjut9sjjjst9ttt9tt9yjjjjjjptttt9ttttwwt999t99dZx*****S",
"******7sjjjj89tjdddy99t9ttttydkkjjkksppsasdggggggghhlzzvABr>;**S",
"%%$###=2222<,11222<<<,<24588riiaadghhhhzzzxxxxvvnnnmnmmNZBvfq-&S",
"S     #**************************************;;;,;;;,2;4me+   .S",
"SS    $*************************************************z>   oSS",
"SSSX  $*************************************************i:  .SSS",
"SSSSX $*************************************************3@ oSSSS",
"SSSSSX%*******************************************;******+oSSSSS",
"SSSSSS&**************************************************+SSSSSS"
};
