/* XPM */
static char *result[] = {
/* columns rows colors chars-per-pixel */
"64 51 38 1 ",
"  c #26BDFF",
". c #2ABEFE",
"X c #2EC0FF",
"o c #36C2FF",
"O c #3BC4FF",
"+ c #43C6FF",
"@ c #47C8FF",
"# c #4BC9FF",
"$ c #54CCFF",
"% c #59CDFF",
"& c #60CFFF",
"* c #64D0FF",
"= c #6CD3FF",
"- c #75D6FF",
"; c #78D7FF",
": c #7DD8FF",
"> c #84DAFF",
", c #8CDDFF",
"< c #92DFFF",
"1 c #97E0FF",
"2 c #9AE1FF",
"3 c #A3E4FF",
"4 c #ADE6FF",
"5 c #AFE8FF",
"6 c #B0E7FF",
"7 c #B3E8FF",
"8 c #BBEBFF",
"9 c #C4EDFF",
"0 c #C8EEFF",
"q c #CEF0FF",
"w c #D5F1FF",
"e c #DAF2FE",
"r c #E4F5FF",
"t c #E9F7FF",
"y c #EDF9FF",
"u c #F4FAFF",
"i c #FCFDFF",
"p c None",
/* pixels */
"ppppppppppppppppppppppppppppppppp%pppppppppppppppppppppppppppppp",
"ppppppppppppppppppppppppppppppp--%OOpppppppppppppppppppppppppppp",
"pppppppppppppppppppppppppppppp--=%@oOppppppppppppppppppppppppppp",
"pppppppppppppppppppppppppppp--;-*%$OooOppppppppppppppppppppppppp",
"ppppppppppppppppppppppppppp-;;;-%$%+oooOOppppppppppppppppppppppp",
"ppppppppppppppppppppppppp--;;-;-%%%#OooooOpppppppppppppppppppppp",
"ppppppppppppppppppppppp---;;;;::%%%$+oooooOOpppppppppppppppppppp",
"pppppppppppppppppppppp---;;;;-,-%%%%#oooooooOppppppppppppppppppp",
"ppppppppppppppppppppp=;;-;;;;;2*%%%%$OooOooooopppppppppppppppppp",
"ppppppppppppppppppppp$=:-;;;-,<%%%%%%@oooooOoXpppppppppppppppppp",
"ppppppppppppppppppppp%%>>;-;;3>%%%%%%$Oooooo.Xpppppppppppppppppp",
"ppppppppppppppppppppp%%&2<;->6=%%%%%%%+ooooX Xpppppppppppppppppp",
"pppppppppppppppppppppp%%-81-26%%%%%%%%#OooX   pppppppppppppppppp",
"pppppppppppppppppppppp%%=<q381%%%%%%%%%Ooo  X pppppppppppppppppp",
"pppppppppppppppppppppp%%--2et2;=%%%%%%$#XX   .pppppppppppppppppp",
"pppppppppppppppppppppp%=;--5t731>=%@+++OXX   ppppppppppppppppppp",
"pppppppppppppppppppppp%-;;-18+oooooooo+@    .ppppppppppppppppppp",
"pppppppppppp$OOOOOOOO+*;;;-17+oooooooO$@. X .ppppppppppppppppppp",
"ppppppppppp-&#Ooooooo+=;;;-<7+oooOOoO#%@    .pppppp-%ppppppppppp",
"ppppppppppp-=%%+oooooO=;;;-17@oooooo+%%@     ppp---=%+pppppppppp",
"pppppppppp-;-%$%#OoooO*;;;-16+ooooo+$%%@   X+=---;-&%+Oppppppppp",
"pppppppppp--:&%%%$+ooo*;;;-,4+ooooO$%%%O  X#-;;;;;;%%+O.pppppppp",
"ppppppppp-;->-%%%%%+oX%;;;->3@oooO$%%%%##%*#*:-;;,=%%@OoOppppppp",
"ppppppppp-;-:,%%%%%%@.%;;;--3+ooo#%%*=--;;*#@;;;,>%$%#OooOpppppp",
"ppppp&-=----;2%%%%%@@o$;;;==2@oO+%%&-;;-;-%#O%;>2*%%%$OoooOppppp",
"ppppO%=------,=%*&+oO#%;;-**1@oO$%%%:;;;>*%#Oo&3>$$%%%OoOooppppp",
"ppppO#%-:--;;-,>-@oo+%%-;-&*1@O#%$%%>>;<;%%#OoO;;*%%%%Oooo.ppppp",
"pppOo#%%>>->>%1-Oooo@%*-;*%*2@@%%$%%>3<,%%%$Ooo+--&%$%OoX .ppppp",
"pppoo#%%&,,,2*-%oooo#%&--&%*2%$%%%%=;60-%%%%OoooooOOO#OX  pppppp",
"ppOoo#%%%&29<-->Oooo#%&;=%%=2*%$%%=--32-=&%$OoXXoooOO#o  .pppppp",
"pOOoo+%%%*,8<;;>-ooO#%%=&%&-2*%%%&--><#O++##Oo XoooO##.  .pppppp",
"poooo+$%%*$%2:-:<#oO%%%=%%=-1*%%%*--,,ooooOOXXXooo+%%+. .ppppppp",
"pp.ooO##Oooo:,;->>OO$%%%%&--,&%$%=;-,&oooO$+X Xoo@%%%o   ppppppp",
"pp.  o+OOooo#<;;-,%O%%%%%*;;,&%%%---,+oO+$$o  oO#%%%#.  .ppppppp",
"ppp.  o$#+OoO=;=-->#$%$%%-;;>&$%$-===OO#%%@X Xo#%%%%O. .pppppppp",
"pppp   +%%#+O+-*==;-%%%%&;;-:%%#%=%-%@%%%%O  o$%%%%#o  .pppppppp",
"ppppX  X#%%%$+*-%*=,*%%%-;;==%$O%&*:&%%%%#X X@%%%$#OXX .pppppppp",
"pppppX  O$%%%%*133452*%%-;;&&$OO$&;:%%%$@oX o%%%%+Oo  .ppppppppp",
"pppppp  XO#$%,0uiiiiiw<*---->:=%%=:=%%#OOX X#%%%OO@o   ppppppppp",
"ppppppX XXo$5uiiiiiiiii0,<8etuyrq2;%$#O#@  X$%#OO$#o  Xppppppppp",
"ppppppp.  +6iiiuuuuuuiiirtiiiiiiiu5%O+#%O  @%#OO$%+  .pppppppppp",
"pppppppp .<iiuuuuuuuuuuiiiiuuiuuiiu2@$%@X X#@O@%%@o  .pppppppppp",
"pppppppp.$riuuuuuuuuuuuuuuuuuuuuuuiu>$Oo. O@O#%%Oo.  .pppppppppp",
"ppppppppp5uuuuuuuiiiiuuuuuuuuuuuuuui9+oX  #+#%%*->=%Oppppppppppp",
"pppppppppiuuuuyuutrryuuuuuuuuuuuuuuit-&@Xo$$%,9yiiiywppppppppppp",
"pppppppppiuutettwwwwwryrtutreeeetyuuuttr9,**4uiiiiiiiiippppppppp",
"ppppppppiiueweewwwwwwweetuttewwwweryuiiiiiq8uiiuuuiuiiiipppppppp",
"ppppppiiiuewwewwwwwwwwerteeerewwwwweyiiuiiiiiuuuuuuuuuiipppppppp",
"pppppiiiirwwwwwwwwwwwwwewwwweewwwwwwruuuuuuiuuuytrtyuuuiiiiiiipp",
"piiiiiiuuewwwwwwwwwwwwwwwwwwwwwwwwwwwrrttuuuyrwwewwweetuiiiiiiip",
"piiiiiuurwwwwwwwewewwweeeeweewwewwwewwwwwrtteewwewewweetuiuuiiii"
};
