/* XPM */
static char *result[] = {
/* columns rows colors chars-per-pixel */
"64 64 158 2 ",
"   c #0E091A",
".  c #120D1E",
"X  c #140F20",
"o  c #151122",
"O  c #1D1627",
"+  c #191729",
"@  c #1C1A2D",
"#  c #1E1E33",
"$  c #271A27",
"%  c #231D2E",
"&  c #2C1E2B",
"*  c #201F35",
"=  c #1F2036",
"-  c #1E2138",
";  c #37242F",
":  c #3A232E",
">  c #232236",
",  c #292537",
"<  c #24253B",
"1  c #2A2638",
"2  c #26283E",
"3  c #2A2A3E",
"4  c #312331",
"5  c #3C2631",
"6  c #382E3E",
"7  c #42272E",
"8  c #47282E",
"9  c #422931",
"0  c #4B2D33",
"q  c #553235",
"w  c #5D3434",
"e  c #603636",
"r  c #643837",
"t  c #212640",
"y  c #252A43",
"u  c #2C2E44",
"i  c #272D48",
"p  c #292F49",
"a  c #2F3045",
"s  c #2B314C",
"d  c #313244",
"f  c #32364D",
"g  c #3B3B4C",
"h  c #2E3552",
"j  c #2F395D",
"k  c #303754",
"l  c #323956",
"z  c #3B3D51",
"x  c #333C5C",
"c  c #343E61",
"v  c #423847",
"b  c #4B3D4C",
"n  c #3C4056",
"m  c #3D445D",
"M  c #374061",
"N  c #3A4465",
"B  c #3F4965",
"V  c #3B4668",
"C  c #3E496B",
"Z  c #434456",
"A  c #42465C",
"S  c #45495E",
"D  c #554754",
"F  c #584955",
"G  c #5B4C58",
"H  c #404760",
"J  c #424A63",
"K  c #4A4F64",
"L  c #434D6C",
"P  c #45506D",
"I  c #4B546D",
"U  c #505366",
"Y  c #525568",
"T  c #595B6C",
"R  c #444F71",
"E  c #465272",
"W  c #4A5574",
"Q  c #4E5875",
"!  c #4B5778",
"~  c #4D5A7A",
"^  c #505773",
"/  c #545D75",
"(  c #535E7C",
")  c #596177",
"_  c #56617F",
"`  c #5D647B",
"'  c #5E687F",
"]  c #626474",
"[  c #60657A",
"{  c #7B737F",
"}  c #556282",
"|  c #5A6583",
" . c #5E6983",
".. c #5E6D8B",
"X. c #636C85",
"o. c #686E86",
"O. c #636E8A",
"+. c #65718C",
"@. c #6A748D",
"#. c #677592",
"$. c #6A7793",
"%. c #6D7995",
"&. c #6D7C99",
"*. c #717C95",
"=. c #797E90",
"-. c #737E98",
";. c #7D8395",
":. c #73819C",
">. c #7B859C",
",. c #7E899F",
"<. c #7585A2",
"1. c #7A89A3",
"2. c #7F8FAA",
"3. c #808495",
"4. c #858EA3",
"5. c #818FA8",
"6. c #8A93A7",
"7. c #8492AC",
"8. c #8B96AD",
"9. c #8D98AF",
"0. c #9195A7",
"q. c #9199AC",
"w. c #9B9FAF",
"e. c #8697B1",
"r. c #8897B1",
"t. c #8D9AB2",
"y. c #8F9FB8",
"u. c #919DB3",
"i. c #8FA0BA",
"p. c #97A1B7",
"a. c #9BA3B5",
"s. c #94A1B9",
"d. c #9AA5BB",
"f. c #9DA8BD",
"g. c #A5ACBD",
"h. c #A9AEBC",
"j. c #9EADC4",
"k. c #A2AFC5",
"l. c #AAB2C3",
"z. c #A9B7CC",
"x. c #ACB9CE",
"c. c #B1B5C3",
"v. c #B5B8C5",
"b. c #B2BED1",
"n. c #BCC1CE",
"m. c #BDC4D2",
"M. c #BBC7DA",
"N. c #BFCBDD",
"B. c #C0C4CF",
"V. c #C2C6D1",
"C. c #C3C8D2",
"Z. c #C1CADA",
"A. c #D1D3DB",
"S. c #D6D8DF",
"D. c #C6D2E3",
"F. c #DBDEE5",
"G. c #E1E4EA",
"H. c None",
/* pixels */
"H.H.H.H.H.H.H.H.c c x c N N H.H.H.H.H.H.H.H.H.H.H.H.H.H.H.H.H.H.H.H.H.H.H.H.H.H.H.H.H.H.H.H.H.H.H.H.H.H.H.H.H.H.H.H.H.H.H.H.H.H.",
"H.H.H.H.H.H.H.H.o.@.@.| L c H.H.H.H.H.H.H.H.H.H.H.H.H.H.H.H.H.H.H.H.H.H.H.H.H.H.H.H.H.H.H.H.H.H.H.H.H.H.H.H.H.H.H.H.H.H.H.H.H.H.",
"H.H.H.H.H.H.j X.c.F.S.h.( c H.H.H.H.H.H.H.H.H.H.H.H.H.H.H.H.H.H.H.H.H.H.H.H.H.H.H.H.H.H.H.H.H.H.H.H.H.H.H.H.H.H.H.H.H.H.H.H.H.H.",
"H.H.H.H.H.H.( >.n.G.G.n.4.o.H.H.H.H.H.H.H.H.H.H.H.H.H.H.H.H.H.H.H.H.H.H.H.H.H.H.H.H.H.H.H.H.H.H.H.H.H.H.H.H.H.H.H.H.H.H.H.H.H.H.",
"H.H.H.H.x ( r.d.r.5.5.a.C.v.X.j H.H.H.H.H.H.H.H.H.H.H.H.H.H.H.H.H.H.H.H.H.H.H.H.H.H.H.H.H.H.H.H.H.H.H.H.H.H.H.H.H.H.H.H.H.H.H.H.",
"H.H.H.H.} %.d.s.O.E W -.V.V.>.( H.H.H.H.H.H.H.H.H.H.H.H.H.H.H.H.H.H.H.H.H.H.H.H.H.H.H.H.H.H.H.H.H.H.H.H.H.H.H.H.H.H.H.H.H.H.H.H.",
"H.H.j ( 8.d.5.O.J l N ( -.r.g.8.} c H.H.H.H.H.H.H.H.H.H.H.H.H.H.H.H.H.H.H.H.H.H.H.H.H.H.H.H.H.H.H.H.H.H.H.H.H.H.H.H.H.H.H.H.H.H.",
"H.H.X.>.d.p.O.B u y k c J X.9.r.| C H.H.H.H.H.H.H.H.H.H.H.H.H.H.H.H.H.H.H.H.H.H.H.H.H.H.H.H.H.H.H.H.H.H.H.H.H.H.H.H.H.H.H.H.H.H.",
"c X.v.n.9.O.B i # # i i < f Q | } ! C N H.H.H.H.H.H.H.H.H.H.H.H.H.H.H.H.H.H.H.H.H.H.H.H.H.H.H.H.H.H.H.H.H.H.H.H.H.H.H.H.H.H.H.H.",
"c @.A.F.5.E l y # # < < @ # s N ! } ~ ! H.H.H.H.H.H.H.H.H.H.H.H.H.H.H.H.H.H.H.H.H.H.H.H.H.H.H.H.H.H.H.H.H.H.H.H.H.H.H.H.H.H.H.H.",
"c @.A.F.4.W N h y < t t < < i h N ~ &.%.W c H.H.H.H.H.H.H.H.H.H.H.H.H.H.H.H.H.H.H.H.H.H.H.H.H.H.H.H.H.H.H.H.H.H.H.H.H.H.H.H.H.H.",
"c ` h.n.a.&.~ m i < y i y y y p x W $.:.O.( H.H.H.H.H.H.H.H.H.H.H.H.H.H.H.H.H.H.H.H.H.H.H.H.H.H.H.H.H.H.H.H.H.H.H.H.H.H.H.H.H.H.",
"N L } 4.C.n.:.B 2 @ - y y y y s x C E +.u.4.v   H.H.H.H.H.H.H.H.H.H.H.H.H.H.H.H.H.H.H.H.H.H.H.H.H.H.H.H.H.H.H.H.H.H.H.H.H.H.H.H.",
"N c x X.v.m.u. .s = y y y y y p j x M ( 9.6.Y 3 H.H.H.H.H.H.H.H.H.H.H.H.H.H.H.H.H.H.H.H.H.H.H.H.H.H.H.H.H.H.H.H.H.H.H.H.H.H.H.H.",
"H.H.H.H.X.>.f.t.Q s i y y y y y p h c L ( O.*.` 3 . H.H.H.H.H.H.H.H.H.H.H.H.H.H.H.H.H.H.H.H.H.H.H.H.H.H.H.H.H.H.H.H.H.H.H.H.H.H.",
"H.H.H.H.j _ 9.9. .N h p p p y y y p l x M E &.@.S u H.H.H.H.H.H.H.H.H.H.H.H.H.H.H.H.H.H.H.H.H.H.H.H.H.H.H.H.H.H.H.H.H.H.H.H.H.H.",
"H.H.H.H.H.H.} | } ! N x x l p y y y p h x C W } @.` d . H.H.H.H.H.H.H.H.H.H.H.H.H.H.H.H.H.H.H.H.H.H.H.H.H.H.H.H.H.H.H.H.H.H.H.H.",
"H.H.H.H.H.H.c J ! }  .( L c k p y y y p l c c W %.@.S 3 H.H.H.H.H.H.H.H.H.H.H.H.H.H.H.H.H.H.H.H.H.H.H.H.H.H.H.H.H.H.H.H.H.H.H.H.",
"H.H.H.H.H.H.H.H.L } r.8.( c x k p 2 y y y k c C E } @.` d . H.H.H.H.H.H.H.H.H.H.H.H.H.H.H.H.H.H.H.H.H.H.H.H.H.H.H.H.H.H.H.H.H.H.",
"H.H.H.H.H.H.H.H.c | 9.u.$.( R V x k p p p k c c C } r.1.n @ H.H.H.H.H.H.H.H.H.H.H.H.H.H.H.H.H.H.H.H.H.H.H.H.H.H.H.H.H.H.H.H.H.H.",
"H.H.H.H.H.H.H.H.H.H._ *.u.r.#.~ ! R c c x c c L ! %.k.p.^ s H.H.H.H.H.H.H.H.H.H.H.H.H.H.H.H.H.H.H.H.H.H.H.H.H.H.H.H.H.H.H.H.H.H.",
"H.H.H.H.H.H.H.H.H.H.x ( 8.d.2.&.O.} W L L c c L ! $.p.s.-.} H.H.H.H.H.H.H.H.H.H.H.H.H.H.H.H.H.H.H.H.H.H.H.H.H.H.H.H.H.H.H.H.H.H.",
"H.H.H.H.H.H.H.H.H.H.H.H.( -.d.d.&.} } ~ L N V V L ~ #.5.d.r._ x H.H.H.H.H.H.H.H.H.H.H.H.H.H.H.H.H.H.H.H.H.H.H.H.H.H.H.H.H.H.H.H.",
"H.H.H.H.H.H.H.H.H.H.H.H.c ( 8.p.5.&.| W L c x x x M L O.u.u.+.P H.H.H.H.H.H.H.H.H.H.H.H.H.H.H.H.H.H.H.H.H.H.H.H.H.H.H.H.H.H.H.H.",
"H.H.H.H.H.H.H.H.H.H.H.H.H.H.} %.j.u.| C N c h p p p h m ! +.<.+.d . H.H.H.H.H.H.H.H.H.H.H.H.H.H.H.H.H.H.H.H.H.H.H.H.H.H.H.H.H.H.",
"H.H.H.H.H.H.H.H.H.H.H.H.H.H.c ( 4.4.$.} ( P h i y y y i h E #.+.n > H.H.H.H.H.H.H.H.H.H.H.H.H.H.H.H.H.H.H.H.H.H.H.H.H.H.H.H.H.H.",
"H.H.H.H.H.H.H.H.H.H.H.H.H.H.H.H.g T 6.d.8.#.L h y y y y i h E ~ Q m > . H.H.H.H.H.H.H.H.H.H.H.H.H.H.H.H.H.H.H.H.H.H.H.H.H.H.H.H.",
"H.H.H.H.H.H.H.H.H.H.H.H.H.H.H.H.  g 3.q.>.@.O.( N h p p p h m C } ( m d H.H.H.H.H.H.H.H.H.H.H.H.H.H.H.H.H.H.H.H.H.H.H.H.H.H.H.H.",
"H.H.H.H.H.H.H.H.H.H.H.H.H.H.H.H.H.H.g g f U 6.u.+.P M x x M M C } +.%.` d . H.H.H.H.H.H.H.H.H.H.H.H.H.H.H.H.H.H.H.H.H.H.H.H.H.H.",
"H.H.H.H.H.H.H.H.H.H.H.H.H.H.H.H.H.H.. . . v 3.q.:...E M m x x N E | :.+.z < H.H.H.H.H.H.H.H.H.H.H.H.H.H.H.H.H.H.H.H.H.H.H.H.H.H.",
"H.H.H.H.H.H.H.H.H.H.H.H.H.H.H.H.H.H.H.H.H.H.g Y :.:.! x s p p h h m W ~ Q A < . H.H.H.H.H.H.H.H.H.H.H.H.H.H.H.H.H.H.H.H.H.H.H.H.",
"H.H.H.H.H.H.H.H.H.H.H.H.H.H.H.H.H.H.H.H.H.H.  3 ) @.| P j y y y y p h N ~ W f > H.H.H.H.H.H.H.H.H.H.H.H.H.H.H.H.H.H.H.H.H.H.H.H.",
"H.H.H.H.H.H.H.H.H.H.H.H.H.H.H.H.H.H.H.H.H.H.H.H.3 S @.%.P h i y y y y h V E E B > . H.H.H.H.H.H.H.H.H.H.H.H.H.H.H.H.H.H.H.H.H.H.",
"H.H.H.H.H.H.H.H.H.H.H.H.H.H.H.H.H.H.H.H.H.H.H.H.. a ` +.~ V h i y y y p l V ~ I f < H.H.H.H.H.H.H.H.H.H.H.H.H.H.H.H.H.H.H.H.H.H.",
"H.H.H.H.H.H.H.H.H.H.H.H.H.H.H.H.H.H.H.H.H.H.H.H.H.H.d n Q ~ V l y y y y i l V E Q m < . H.H.H.H.H.H.H.H.H.H.O o o o X o H.H.H.H.",
"H.H.H.H.H.H.H.H.H.H.H.H.H.H.H.H.H.H.H.H.H.H.H.H.H.H.. > A W E V l p y y y p l N W L u % H.H.H.H.H.H.H.H.H.H.o @ 3 d d d H.H.H.H.",
"H.H.H.H.H.H.H.H.H.H.H.H.H.H.H.H.H.H.H.H.H.H.H.H.H.H.H.H.> f Q ~ N l p y y y p s k l l p # o H.H.H.H.H.H.H.H.. 1 ) %.*.` d X H.H.",
"H.H.H.H.H.H.H.H.H.H.H.H.H.H.H.H.H.H.H.H.H.H.H.H.H.H.H.H.. < A W E N s y y y y y y p x k 2 # H.H.H.H.H.H.H.H.a K >.i.t.+.d o H.H.",
"H.H.H.H.H.H.H.H.H.H.H.H.H.H.H.H.H.H.H.H.H.H.H.H.H.H.H.H.H.H.> f W W h y y y y y y y p h k p # . H.H.H.H.X d ` ,.e.e.<.( 3 o H.H.",
"H.H.H.H.H.H.H.H.H.H.H.H.H.H.H.H.H.H.H.H.H.H.H.H.H.H.H.H.H.H.X < m P m s i y y y y y y p x k y # H.H.H.H.O d ' 1.7.:...J < o H.H.",
"H.H.H.H.H.H.H.H.H.H.H.H.H.H.H.H.H.H.H.H.H.H.H.H.H.H.H.H.H.H.H.H.< f P P s y y y y y y y p h h s # o o + = y l I ....! x = o H.H.",
"H.H.H.H.H.H.H.H.H.H.H.H.H.H.H.H.H.H.H.H.H.H.H.H.H.H.H.H.H.H.H.H.X , m P m h a y y y i y y p M l = + @ < a s y s m L m a # o H.H.",
"H.H.H.H.H.H.H.H.H.H.H.H.H.H.H.H.H.H.H.H.H.H.H.H.H.H.H.H.H.H.H.H.H.H., f P P h y y y y y y s M h = @ p j m j p 2 2 , = = H.H.H.H.",
"H.H.H.H.H.H.H.H.H.H.H.H.H.H.H.H.H.H.H.H.H.H.H.H.H.H.H.H.H.H.H.H.H.H.X < S L l p i y y i p h h p = @ p j m h i > + o o o H.H.H.H.",
"H.H.H.H.H.H.H.H.H.H.H.H.H.H.H.H.H.H.H.H.H.H.H.H.H.H.H.H.H.H.H.H.H.H.H.H.< a l l p y y p j l < # = = # < i y > + H.H.H.H.H.H.H.H.",
"H.H.H.H.H.H.H.H.H.H.H.H.H.H.H.H.H.H.H.H.H.H.H.H.H.H.H.H.H.H.H.H.H.H.H.H.X = s l s s p p h l z Z K S a < < = + o H.H.H.H.H.H.H.H.",
"H.H.H.H.H.H.H.H.H.H.H.H.H.H.H.H.H.H.H.H.H.H.H.H.H.H.H.H.H.H.H.H.H.H.H.H.H.H.# 2 h m M h < z =.a.f.6. .m < + H.H.H.H.H.H.H.H.H.H.",
"H.H.H.H.H.H.H.H.H.H.H.H.H.H.H.H.H.H.H.H.H.H.H.H.H.H.H.H.H.H.H.H.H.H.H.H.H.H.X # s x l p # Z a.D.N.k.<.P < o H.H.H.H.H.H.H.H.H.H.",
"H.H.H.H.H.H.H.H.H.H.H.H.H.H.H.H.H.H.H.H.H.H.H.H.H.H.H.H.H.H.H.H.H.H.H.H.H.H.H.H.# # # # = K d.N.z.t.&.P < X H.H.H.H.H.H.H.H.H.H.",
"H.H.H.H.H.H.H.H.H.H.H.H.H.H.H.H.H.H.H.H.H.H.H.H.H.H.H.H.H.H.H.H.H.H.H.H.H.H.H.H.o O @ # = J w.x.y.:._ m , O H.H.H.H.H.H.H.H.H.H.",
"H.H.H.H.H.H.H.H.H.H.H.H.H.H.H.H.H.H.H.H.H.H.H.H.H.H.H.H.H.H.H.H.H.H.H.H.H.H.H.H.o # p s # g >.s.<._ z > 4 ; O o H.H.H.H.H.H.H.H.",
"H.H.H.H.H.H.H.H.H.H.H.H.H.H.H.H.H.H.H.H.H.H.H.H.H.H.H.H.H.H.H.H.H.H.H.H.H.H.H.H.+ < x l - a ) +.) m , $ ; ; & @ H.H.H.H.H.H.H.H.",
"H.H.H.H.H.H.H.H.H.H.H.H.H.H.H.H.H.H.H.H.H.H.H.H.H.H.H.H.H.H.H.H.H.H.H.H.H.H.. + # p x x u 2 u u 2 < & ; 5 5 5 & @ o H.H.H.H.H.H.",
"H.H.H.H.H.H.H.H.H.H.H.H.H.H.H.H.H.H.H.H.H.H.H.H.H.H.H.H.H.H.H.H.H.H.H.H.H.H.g g u p l l i = + . X $ ; ; 5 9 0 9 & O H.H.H.H.H.H.",
"H.H.H.H.H.H.H.H.H.H.H.H.H.H.H.H.H.H.H.H.H.H.H.H.H.H.H.H.H.H.H.H.H.H.V h + g ;.;.m y p p > + H.H.H.H.O $ 5 0 e w 7 & O o o o H.H.",
"H.H.H.H.H.H.H.H.H.H.H.H.H.H.H.H.H.H.H.H.H.H.H.H.H.H.H.H.H.H.H.H.H.H.V x z ] g.l.X.l i # + o H.H.H.H.+ O & 9 w r q 7 & % > < H.H.",
"H.H.H.H.H.H.H.H.H.H.H.H.H.H.H.H.H.H.H.H.H.H.H.H.H.H.H.H.H.H.H.H.H.H.M ^ >.g.M.b.8.` a + H.H.H.H.H.H.H.H.O & 7 q r w 7 6 A A < o ",
"H.H.H.H.H.H.H.H.H.H.H.H.H.H.H.H.H.H.H.H.H.H.H.H.H.H.H.H.H.H.H.H.H.H.c } d.M.M.z.i.+.a o H.H.H.H.H.H.H.H.+ O & 7 w w 8 b o.| u X ",
"H.H.H.H.H.H.H.H.H.H.H.H.H.H.H.H.H.H.H.H.H.H.H.H.H.H.H.H.H.H.H.H.H.H.M ( 7.j.j.u.<.) 3 o H.H.H.H.H.H.H.H.H.H.O & 7 8 : F 0.4.g . ",
"H.H.H.H.H.H.H.H.H.H.H.H.H.H.H.H.H.H.H.H.H.H.H.H.H.H.H.H.H.H.H.H.H.H.N W $.:.*.O./ m < o H.H.H.H.H.H.H.H.H.H.+ % v D G { c.a.A O ",
"H.H.H.H.H.H.H.H.H.H.H.H.H.H.H.H.H.H.H.H.H.H.H.H.H.H.H.H.H.H.H.H.H.H.H.H.W L z u 3 < H.H.H.H.H.H.H.H.H.H.H.H.o 3 [ 3.w.l.Z.a.K - ",
"H.H.H.H.H.H.H.H.H.H.H.H.H.H.H.H.H.H.H.H.H.H.H.H.H.H.H.H.H.H.H.H.H.H.H.H.N h # o X o H.H.H.H.H.H.H.H.H.H.H.H.X d [ ,.u.f.f.;.m - ",
"H.H.H.H.H.H.H.H.H.H.H.H.H.H.H.H.H.H.H.H.H.H.H.H.H.H.H.H.H.H.H.H.H.H.H.H.H.H.H.H.H.H.H.H.H.H.H.H.H.H.H.H.H.H.H.H.f n J I U m < O ",
"H.H.H.H.H.H.H.H.H.H.H.H.H.H.H.H.H.H.H.H.H.H.H.H.H.H.H.H.H.H.H.H.H.H.H.H.H.H.H.H.H.H.H.H.H.H.H.H.H.H.H.H.H.H.H.H.X o = t 2 - + o "
};
