/* XPM */
static char *result[] = {
/* columns rows colors chars-per-pixel */
"16 16 2 1 ",
"  c #8C6D3F",
". c #9D8756",
/* pixels */
"     .. ...     ",
".   ... ....  ..",
"..   .. .... ...",
"..       ...  ..",
"    .           ",
".. ... ..  ...  ",
"..  .  ...  .. .",
"..      .. . . .",
".  ...    ...   ",
"  .... . .... . ",
"   ..     ...   ",
"  .    ..  . ...",
" .. .. ...  ....",
" .. .. ...   .. ",
"  .  . ..  . .. ",
". ..         .. "
};
