/* XPM */
static char *result[] = {
/* columns rows colors chars-per-pixel */
"64 43 59 1 ",
"  c #AD1C22",
". c #AE1C22",
"X c #B01C22",
"o c #B11C22",
"O c #B21C22",
"+ c #B31C22",
"@ c #B41C22",
"# c #B51C22",
"$ c #B61C22",
"% c #B71C22",
"& c #BB1C21",
"* c #B81C22",
"= c #BA1C22",
"- c #BC1C21",
"; c #BD1C21",
": c #BE1C21",
"> c #BF1C21",
", c #D81B1F",
"< c #D91B1F",
"1 c #DA1B1F",
"2 c #DB1B1F",
"3 c #DC1B1F",
"4 c #DD1B1F",
"5 c #DE1B1F",
"6 c #DF1B1F",
"7 c #E01B1F",
"8 c #E11B1F",
"9 c #E41B1F",
"0 c #E51B1F",
"q c #E61A1E",
"w c #E71A1E",
"e c #E61B1E",
"r c #E61B1F",
"t c #E81A1E",
"y c #C01C21",
"u c #C11C21",
"i c #C21C21",
"p c #C31C21",
"a c #C41C21",
"s c #C51C21",
"d c #C61C21",
"f c #C71C21",
"g c #CA1B20",
"h c #CB1B20",
"j c #CC1B20",
"k c #CD1B20",
"l c #CE1B20",
"z c #CF1B20",
"x c #C91C20",
"c c #C81C21",
"v c #D01B20",
"b c #D11B20",
"n c #D21B20",
"m c #D31B20",
"M c #D41B20",
"N c #D51B20",
"B c #D61B20",
"V c #D71B20",
"C c None",
/* pixels */
"CCCCCCCCCCCCCCCCCCCCCCCCCCCCCCCCCCCCCCCCCCCCCCCCCCCCCCCCCCCCCCCC",
"CCCO4>>4OvvO4>>4OvvO4>>4OvvO4>>4OvvO4>>4OvvO4>>4OvvO4>>4OvvO4CCC",
"CCls7kk7s,,s7kk7s,,s7kk7s,,s7kk7s,,s7kk7s,,s7kk7s,,s7kk7s,,s7zCC",
"C580000q0000q00q0000q00q0000q00q0000q00q0000q00q0000q00q00000soC",
"C+feqqqqqqqqqqqqqqqqqqqqqqqqqqqqqqqqqqqqqqqqqqqqqqqqqqqqqqqqr73C",
"ClVe0vuipiuuuuuuuuuuuuuuuuuuuuuuuuuuuuuuuuuuuuuuuuuuuuipiuv00zuC",
"Cn1q0>X- $:;;;;;;;;;;;;;;;;;;;;;;;;;;;;;;;;;;;;;;;;;;:$ -X>0ej-C",
"Cos00y:V@zq999999999999999999999999999999999999999999qz@V:y0q85C",
"C26q0u.#.vtqqqqqqqqqqqqqqqqqqqqqqqqqqqqqqqqqqqqqqqqqqtv.#.u0rf@C",
"Cpvq0y$jk4qrrrrrrrrrrrrrrrrrrrrrrrrrrrrrrrrrrrrrrrrrrq4kj$y0qBjC",
"C&he0>ywtq0rrrrrrrrrrrrrrrrrrrrrrrrrrrrrrrrrrrrrrrrrr0qtwy>0q2MC",
"C58q0>>0qrrrrrrrrrrrrrrrrrrrrrrrrrrrrrrrrrrrrrrrrrrrrrrq0>>00sXC",
"C#cr0>>0qrrrrrrrrrrrrrrrrrrrrrrrrrrrrrrrrrrrrrrrrrrrrrrq0>>0q51C",
"ChNq0>>0qrrrrrrrrrrrrrrrrrrrrrrrrrrrrrrrrrrrrrrrrrrrrrrq0>>0qbaC",
"CN3q0>>0qrrrrrrrrrrrrrrrrrrrrrrrrrrrrrrrrrrrrrrrrrrrrrrq0>>0eh=C",
"CXs00>>0qrrrrrrrrrrrrrrrrrrrrrrrrrrrrrrrrrrrrrrrrrrrrrrq0>>0q86C",
"C<5q0>>0qrrrrrrrrrrrrrrrrrrrrrrrrrrrrrrrrrrrrrrrrrrrrrrq0>>0rc$C",
"Cdnq0>>0qrrrrrrrrrrrrrrrrrrrrrrrrrrrrrrrrrrrrrrrrrrrrrrq0>>0qMxC",
"C*gr0>>0qrrrrrrrrrrrrrrrrrrrrrrrrrrrrrrrrrrrrrrrrrrrrrrq0>>0q3VC",
"C68q0>>0qrrrrrrrrrrrrrrrrrrrrrrrrrrrrrrrrrrrrrrrrrrrrrrq0>>00sXC",
"C%xr0>>0qrrrrrrrrrrrrrrrrrrrrrrrrrrrrrrrrrrrrrrrrrrrrrrq0>>0q4,C",
"Cfmq0>>0qrrrrrrrrrrrrrrrrrrrrrrrrrrrrrrrrrrrrrrrrrrrrrrq0>>0qmfC",
"C,4q0>>0qrrrrrrrrrrrrrrrrrrrrrrrrrrrrrrrrrrrrrrrrrrrrrrq0>>0rx%C",
"CXs00>>0qrrrrrrrrrrrrrrrrrrrrrrrrrrrrrrrrrrrrrrrrrrrrrrq0>>0q86C",
"CV3q0>>0qrrrrrrrrrrrrrrrrrrrrrrrrrrrrrrrrrrrrrrrrrrrrrrq0>>0rg*C",
"CxMq0>>0qrrrrrrrrrrrrrrrrrrrrrrrrrrrrrrrrrrrrrrrrrrrrrrq0>>0qndC",
"C$cr0>>0qrrrrrrrrrrrrrrrrrrrrrrrrrrrrrrrrrrrrrrrrrrrrrrq0>>0q5<C",
"C68q0>>0qrrrrrrrrrrrrrrrrrrrrrrrrrrrrrrrrrrrrrrrrrrrrrrq0>>00sXC",
"C=he0>>0qrrrrrrrrrrrrrrrrrrrrrrrrrrrrrrrrrrrrrrrrrrrrrrq0>>0q3NC",
"Cabq0>>0qrrrrrrrrrrrrrrrrrrrrrrrrrrrrrrrrrrrrrrrrrrrrrrq0>>0qNhC",
"C15q0>>0qrrrrrrrrrrrrrrrrrrrrrrrrrrrrrrrrrrrrrrrrrrrrrrq0>>0rc#C",
"CXs00>>0qrrrrrrrrrrrrrrrrrrrrrrrrrrrrrrrrrrrrrrrrrrrrrrq0>>0q85C",
"CM2q0>ywtq0rrrrrrrrrrrrrrrrrrrrrrrrrrrrrrrrrrrrrrrrrr0qtwy>0eh&C",
"CjBq0y$jk4qrrrrrrrrrrrrrrrrrrrrrrrrrrrrrrrrrrrrrrrrrrq4kj$y0qvpC",
"C@fr0u.#.vtqqqqqqqqqqqqqqqqqqqqqqqqqqqqqqqqqqqqqqqqqqtv.#.u0q62C",
"C58q0y:V@zq999999999999999999999999999999999999999999qz@V:y00soC",
"C-je0>X- $:;;;;;;;;;;;;;;;;;;;;;;;;;;;;;;;;;;;;;;;;;;:$ -X>0q1nC",
"Cuz00vuipiuuuuuuuuuuuuuuuuuuuuuuuuuuuuuuuuuuuuuuuuuuuuipiuv0eVlC",
"C37rqqqqqqqqqqqqqqqqqqqqqqqqqqqqqqqqqqqqqqqqqqqqqqqqqqqqqqqqef+C",
"Cos00000q00q0000q00q0000q00q0000q00q0000q00q0000q00q0000q000085C",
"CCz7s,,s7kk7s,,s7kk7s,,s7kk7s,,s7kk7s,,s7kk7s,,s7kk7s,,s7kk7slCC",
"CCC4OvvO4>>4OvvO4>>4OvvO4>>4OvvO4>>4OvvO4>>4OvvO4>>4OvvO4>>4OCCC",
"CCCCCCCCCCCCCCCCCCCCCCCCCCCCCCCCCCCCCCCCCCCCCCCCCCCCCCCCCCCCCCCC"
};
