/* XPM */
static char *result[] = {
/* columns rows colors chars-per-pixel */
"32 64 143 2 ",
"   c #010102",
".  c #070807",
"X  c #080907",
"o  c #000008",
"O  c #07080A",
"+  c #0C0D0C",
"@  c #0E150D",
"#  c #0F180E",
"$  c #10140C",
"%  c #111B0F",
"&  c #020315",
"*  c #04051D",
"=  c #07081F",
"-  c #090B1C",
";  c #131513",
":  c #131B12",
">  c #161A1B",
",  c #191D19",
"<  c #172316",
"1  c #192414",
"2  c #1A221A",
"3  c #1C2919",
"4  c #232D15",
"5  c #202D1A",
"6  c #253016",
"7  c #21341E",
"8  c #28341C",
"9  c #0B0D24",
"0  c #1C2635",
"q  c #212121",
"w  c #232E23",
"e  c #25232E",
"r  c #2A212B",
"t  c #2F2F2F",
"y  c #302F2F",
"u  c #263324",
"i  c #263B20",
"p  c #2A3B23",
"a  c #2C3C2B",
"s  c #303130",
"d  c #2F4122",
"f  c #2F402E",
"g  c #2F4B2B",
"h  c #304423",
"j  c #364A25",
"k  c #32432D",
"l  c #38472B",
"z  c #314D2C",
"x  c #3F5027",
"c  c #334630",
"v  c #354D33",
"b  c #3D4D32",
"n  c #375432",
"m  c #3B5335",
"M  c #3C5A36",
"N  c #3E5C39",
"B  c #3C6037",
"V  c #3F6339",
"C  c #42572A",
"Z  c #43582A",
"A  c #415534",
"S  c #435936",
"D  c #455D38",
"F  c #6E5334",
"G  c #406037",
"H  c #42643B",
"J  c #49623A",
"K  c #446A3D",
"L  c #52673A",
"P  c #566E3E",
"I  c #4F743E",
"U  c #50753F",
"Y  c #273440",
"T  c #434342",
"R  c #474B4F",
"E  c #4D4D4D",
"W  c #514F4D",
"Q  c #51504F",
"!  c #525252",
"~  c #53565A",
"^  c #665F54",
"/  c #466D41",
"(  c #486F42",
")  c #4B7343",
"_  c #4E7B47",
"`  c #4F7E48",
"'  c #517741",
"]  c #547B45",
"[  c #587E45",
"{  c #507E48",
"}  c #525F6B",
"|  c #55616D",
" . c #566777",
".. c #877E67",
"X. c #867E69",
"o. c #63813D",
"O. c #53834A",
"+. c #5A8449",
"@. c #57894E",
"#. c #5C8A4C",
"$. c #678442",
"%. c #6B8A45",
"&. c #608E4D",
"*. c #6F8F4B",
"=. c #62914F",
"-. c #6E9348",
";. c #70934A",
":. c #759B4F",
">. c #649550",
",. c #669852",
"<. c #6B9B52",
"1. c #769D51",
"2. c #789E51",
"3. c #7AA24F",
"4. c #73A355",
"5. c #7AA253",
"6. c #7CA956",
"7. c #76A758",
"8. c #76A858",
"9. c #7FAD58",
"0. c #85AB54",
"q. c #80AE58",
"w. c #87B057",
"e. c #83B45B",
"r. c #89B158",
"t. c #86B85D",
"y. c #8ABA5D",
"u. c #90BD5D",
"i. c #94C561",
"p. c #99CA63",
"a. c #A4D666",
"s. c #5E758A",
"d. c #4F779C",
"f. c #567794",
"g. c #7E8581",
"h. c #5D82A6",
"j. c #5F86AB",
"k. c #6C90AE",
"l. c #6C92B1",
"z. c #729CBF",
"x. c #6193C3",
"c. c #729DC0",
"v. c None",
/* pixels */
"v.v.v.v.v.v.v.v.v.v.v.v.v.v.v.v.v.v.v.v.v.v.v.v.v.v.v.v.v.v.v.v.",
"v.v.v.v.v.v.v.v.v.v.v.v.v.v.v.v.v.v.v.v.v.v.v.v.v.v.v.v.v.v.v.v.",
"v.v.v.v.v.v.v.v.v.v.v.v.v.v.v.v.v.v.v.v.v.v.v.v.v.v.v.v.v.v.v.v.",
"v.v.v.v.v.v.v.v.v.v.v.v.v.v.v.v.v.v.v.v.v.v.v.v.v.v.v.v.v.v.v.v.",
"v.v.v.v.v.v.v.v.v.v.v.v.v.v.v.v.v.v.v.v.v.v.v.v.v.v.v.v.v.v.v.v.",
"v.v.v.v.v.v.v.v.v.v.v.v.v.v.v.v.v.v.v.v.v.v.v.v.v.v.v.v.v.v.v.v.",
"v.v.v.v.v.v.v.v.v.v.v.v.v.v.v.v.v.v.v.v.v.v.v.v.v.v.v.v.v.v.v.v.",
"v.v.v.v.v.v.v.v.v.v.v.v.v.v.v.v.v.v.v.v.v.v.v.v.v.v.v.v.v.v.v.v.",
"v.v.v.v.v.v.v.v.v.v.v.v.v.v.v.v.    v.v.v.v.v.v.v.v.v.v.v.v.v.v.",
"v.v.v.v.v.v.v.v.v.v.v.v.v.v.v.v.% % v.v.v.v.v.v.v.v.v.v.v.v.v.v.",
"v.v.v.v.v.v.v.v.v.v.v.v.v.v.  % z z %   v.v.v.v.v.v.v.v.v.v.v.v.",
"v.v.v.v.v.v.v.v.v.v.v.v.v.v.# p ] I 1   v.v.v.v.v.v.v.v.v.v.v.v.",
"v.v.v.v.v.v.v.v.v.v.v.v.  # g ] 0.-.4   v.v.v.v.v.v.v.v.v.v.v.v.",
"v.v.v.v.v.v.v.v.v.v.v.v.# 7 K <.i.0.j @ v.v.v.v.v.v.v.v.v.v.v.v.",
"v.v.v.v.v.v.v.v.v.v.  # z V _ <.i.y.] g %   v.v.v.v.v.v.v.v.v.v.",
"v.v.v.v.v.v.v.v.v.v.  1 I >.@.=.e.y.4.I 1   v.v.v.v.v.v.v.v.v.v.",
"v.v.v.v.v.v.v.v.v.v.  4 ;.t.=.O.&.4.y.;.6   v.v.v.v.v.v.v.v.v.v.",
"v.v.v.v.v.v.v.v.v.v.% h %.5.#.O.O.&.5.%.x 4 v.v.v.v.v.v.v.v.v.v.",
"v.v.v.v.v.v.v.v.  % z V S D ' O.O.) D L -.o.6   v.v.v.v.v.v.v.v.",
"v.v.v.v.v.v.v.v.% 7 K ) v v ) { ) N c J 5.3.C 4 v.v.v.v.v.v.v.v.",
"v.v.v.v.v.v.  % z K O.] ) ) { ) v g D ) &.1.5.o.4   v.v.v.v.v.v.",
"v.v.v.v.v.v.  % m ) O.O.O.O.O.) D J ) O.O.&.6.$.3   v.v.v.v.v.v.",
"v.v.v.v.v.v.  @ u m ) O.O.O.{ &.2.5.#.O.O._ J k @   v.v.v.v.v.v.",
"v.v.v.v.v.v.    ; u N / { O.O.=.e.y.4.#._ m w ; .   v.v.v.v.v.v.",
"v.v.v.v.v.v.v.v.. @ w n ) O.O.@.>.4.y.5.J w @   v.v.v.v.v.v.v.v.",
"v.v.v.v.v.v.v.v.# 3 l D ' { ) / ) #.5.;.S a 8 4 v.v.v.v.v.v.v.v.",
"v.v.v.v.v.v.  % z ) :.5.&.) v v ( ) J S H ] -.o.4   v.v.v.v.v.v.",
"v.v.v.v.v.v.% 8 ] 8.y.e.=./ v m +.+.v v ( ,.t.3.Z 4 v.v.v.v.v.v.",
"v.v.v.v.  # z ] q.y.4.=.+._ / +.q.q.[ / _ @.=.1.3.o.4   v.v.v.v.",
"v.v.v.v.  % z ] :.5.#.O.O.O.O.>.e.t.4.=.@.{ O.&.:.o.4   v.v.v.v.",
"v.v.v.v.v.v.: 3 l J ' O.O.O.O.@.>.4.t.q.&.{ O.K h 4 v.v.v.v.v.v.",
"v.v.v.v.v.v.  . , a N / / ) { _ / [ q.t.4.&.) N 8 4 v.v.v.v.v.v.",
"v.v.v.v.v.v.  O , e a a a v ) ) v b { 4.y.5.D A %.o.4   v.v.v.v.",
"v.v.v.v.v.v.# 3 p c A b c c / N v m { 1.0.;.A D 6.;.6   v.v.v.v.",
"v.v.v.v.  % g H / ] 1.1.] D c c N +.q.5.P A H { =.I 1   v.v.v.v.",
"v.v.v.v.. 3 H @.@.>.e.t.>.) D D ) ,.i.q.J v ) { K g %   v.v.v.v.",
"v.v.  . ; a / @.@.#.>.>.@.&.2.2.&.,.i.u.&./ { K 7 # v.v.v.v.v.v.",
"v.v.  . ; u N ) { ) / / _ ,.i.i.,.&.q.q.[ K / m 5 # v.v.v.v.v.v.",
"v.v.v.v.. @ w m ) ) v v / ,.i.i.,.@.>.[ m a a g M g :   v.v.v.v.",
"v.v.v.v.# 3 u m ) ) v v ( =.2.:.] H / / A A A J _ V <   v.v.v.v.",
"v.v.  % z H K ) { { / / { ' D b a a a S *.r.0.2.=.B %   v.v.v.v.",
"v.v.. 3 K @.O.O.{ @.>.>.#.( v c A A c D 2.p.a.p.6.U i % v.v.v.v.",
"  . ; a / @.@.O.{ >.e.e.>._ / ] :.1.] ) &.7.p.a.p.6.O.z %   v.v.",
"  . 2 a M V H ) _ >.e.e.>._ ( +.0.q.>.{ { #.1.r.u.q.U z %   v.v.",
"v.v.v.v.% 1 u v ( @.>.>.@.) v m +.>.@.@.{ ) S J #.U 8 % v.v.v.v.",
"v.v.v.v.# 3 l J _ { ( / / H c v / _ ) ) { _ D D _ V 7 % v.v.v.v.",
"v.v.  # g U :.5.&.( v a a v H ( { ( v v ( &.2.2.#.) K g %   v.v.",
"v.v.. 3 H ,.e.e.,.( m a a m +.>.#.) v v ( ,.t.y.4.=.#.H 3 . v.v.",
"  . : a / @.>.>.@.{ ) / / [ q.t.>.{ ) ) { @.>.4.t.e.,./ a ; O   ",
"  . ; u N _ { { ) / / ) ` =.5.2.[ / / ( / / / [ q.q.+.N u : .   ",
"v.v.X ; u m ) ) m a c m ) { J A c c k c k c a S +.+.S w ; . v.v.",
"v.v.  . ; u N D u , , u N N u , , , , 2 , , , u N N u ; .   v.v.",
"v.v.v.v.. ; u u ; . O ; u u ; . X X X X . . . ; u u ;   v.v.v.v.",
"v.v.v.v.; ; , , ; +   O > > O o o o o o   . + ; , , > ; v.v.v.v.",
"v.v.! E T s ; ; s y ;   * 9 9 9 * * * &   + y s ; ; t T Q ! v.v.",
"v.v.! ! ! T q q T R 0 0 r r e e r r r e 0 Y R T q q T ~ ! ! v.v.",
"! Q ! ! ! E T T W } d.f.^ F F F F F F ^ f.d.} E T T E ! ! ! ! ! ",
"! ! ! ! ! ! ! ! W | j.l.g.......X.....g.l.j.| Q ! ! ! Q ! ! ! ! ",
"v.v.! ! ! ! ! ! ! ~ | s.k.c.c.c.z.c.c.k.s.| ~ ! ! ! ! Q ! ! v.v.",
"v.v.! ! ! ! ! ! ! Q W } h.x.x.x.x.x.x.h.| W Q ! ! ! ! ! ! ! v.v.",
"v.v.v.v.v.v.v.v.! ! ! ~ |  . . . . . .| ~ ! ! ! v.v.v.v.v.v.v.v.",
"v.v.v.v.v.v.v.v.! ! ! ! W W W W W W W Q Q ! ! ! v.v.v.v.v.v.v.v.",
"v.v.v.v.v.v.v.v.v.v.v.v.v.v.v.v.v.v.v.v.v.v.v.v.v.v.v.v.v.v.v.v.",
"v.v.v.v.v.v.v.v.v.v.v.v.v.v.v.v.v.v.v.v.v.v.v.v.v.v.v.v.v.v.v.v."
};
