/* XPM */
static char *result[] = {
/* columns rows colors chars-per-pixel */
"64 64 80 1 ",
"  c #F2EDF1",
". c #F1ECF0",
"X c #F3EDF1",
"o c #F5EEF1",
"O c #F1EDF1",
"+ c #F0ECF0",
"@ c #EDEBF0",
"# c #EAEAEF",
"$ c #E8E9EF",
"% c #E5E8EF",
"& c #DCE6ED",
"* c #D6E4ED",
"= c #D7E4ED",
"- c #DDE6EE",
"; c #E6E9EF",
": c #EFECF0",
"> c #F5EDF1",
", c #F4EDF1",
"< c #CDE1EB",
"1 c #C3DDEA",
"2 c #CEE1EB",
"3 c #DEE6EE",
"4 c #ECEBF0",
"5 c #F6EEF1",
"6 c #D6E3EC",
"7 c #C2DDEA",
"8 c #B4D9E8",
"9 c #D5E3EC",
"0 c #E7E9EF",
"q c #B3D8E7",
"w c #BEDCE9",
"e c #DDE6ED",
"r c #BDDCE9",
"t c #C0DDE9",
"y c #C7DFEA",
"u c #D1E2EC",
"i c #D2E2EC",
"p c #BDDBE9",
"a c #BADAE8",
"s c #B9DAE8",
"d c #D0E1EC",
"f c #C0DCE9",
"g c #B2D8E7",
"h c #AAD5E6",
"j c #A8D5E6",
"k c #A9D5E6",
"l c #C4DEEA",
"z c #B4D8E8",
"x c #ABD5E6",
"c c #A8D4E6",
"v c #F1ECF1",
"b c #DFE7EE",
"n c #CFE1EC",
"m c #BADBE9",
"M c #B8DAE8",
"N c #D0E2EC",
"B c #EEEBF0",
"V c #DCE5ED",
"C c #CCE0EB",
"Z c #F8EFF1",
"A c #A6D4E6",
"S c #B6D9E8",
"D c #CFE1EB",
"F c #E5E9EF",
"G c #F7EEF1",
"H c #B7D9E8",
"J c #BFDCE9",
"K c #A7D4E6",
"L c #C8DFEB",
"P c #B7DAE8",
"I c #DFE6EE",
"U c #C9DFEB",
"Y c #C1DDE9",
"T c #E9EAEF",
"R c #C5DEEA",
"E c #D8E4ED",
"W c #E0E7EE",
"Q c #EBEAEF",
"! c #BBDBE9",
"~ c white",
/* pixels */
"      ...  XooooX  ......  XooooX  ...                          ",
"         O........O      O........O                             ",
"         .+@#$$#@+        +@#$$#@+.                             ",
"        X.@%&*=-;:Xo>,,>oX:;-=*&%@.X                            ",
"       XX.#&<11234,55oo55,43211<&#.XX                           ",
"       X,.$6788790.,X..X,.0978876$.,X                           ",
"       X,.$678qw23;$$;;$$;32wq876$.,X                           ",
"       XX.#e<7rty2uiiuuiiu2ytr7<e#.XX                           ",
"        X.@;392y7passaassap7y293;@.X                            ",
"         .+:403dfghjkhhkjhgfd304:+.                             ",
"         O X,.$=lzxcjhhjcxzl=$.,X O                             ",
"      v..  ,o,@bn7mMMaaMMm7nb@,o,  ..v                          ",
"      v..  X,X:036uNNuuNNu630:X,X  ..v                          ",
"       vv     +B#$;;;;;;;;$#B+     vv                           ",
"             O................O                                 ",
"          v..  XX,,>>,,>>,,XX  ..v                              ",
"          v..   XX,,,,,,,,XX   ..v                              ",
"           vv                  vv                               ",
"                               vv          ..          vv       ",
"                              v..   XXXX   ..   XXXX   ..v      ",
"                              v..  XX,,XX  ..  XX,,XX  ..v      ",
"                                 O........    ........O         ",
"                                 .+@#$$#@+ XX +@#$$#@+.         ",
"                                X.@%V66e;:,55,:;e66V%@.X        ",
"                               XX.#VC77<34,ZZ,43<77CV#.XX       ",
"                               X,.$6788790.oo.0978876$.,X       ",
"   vv          ..          vv  X,.$678qw23;##;32wq876$.,X       ",
"  v..   XXXX   ..   XXXX   ..v XX.#e<7rty2uiiu2ytr7<e#.XX       ",
"  v..  XX,,XX  ..  XX,,XX  ..v  X.@;392y7passap7y293;@.X        ",
"     O........    ........O      .+:403dfghAAhgfd304:+.         ",
"     .+@#$$#@+ XX +@#$$#@+.      O X,.$=lzhAAhzl=$.,X O         ",
"    X.@%V66e;:,55,:;e66V%@.X  v..  ,o,@bn7aSSa7nb@,o,  ..v      ",
"   XX.#VC77<34,ZZ,43<77CV#.XX v..  X,X:036uDDu630:X,X  ..v      ",
"   X,.$6788790.oo.0978876$.,X  vv     +B#$;FF;$#B+     vv       ",
"   X,.$678qw23;##;32wq876$.,X        O............O             ",
"   XX.#e<7rty2uiiu2ytr7<e#.XX     v..  XX,,oo,,XX  ..v          ",
"    X.@;392y7passap7y293;@.X      v..   XX,,,,XX   ..v          ",
"     .+:403dfghAAhgfd304:+.        vv              vv           ",
"     O X,.$=lzhAAhzl=$.,X O                                     ",
"  v..  ,o,@bn7aSSa7nb@,o,  ..v                                  ",
"  v..  X,X:036uDDu630:X,X  ..v                                  ",
"   vv     +B#$;FF;$#B+     vv                                   ",
"         O............O    vv          vv              vv       ",
"      v..  XX,,oo,,XX  ..vv..   XXXX   ..v            v..   XX,,",
"      v..   XX,,,,XX   ..vv..  XX,,XX  ..v            v..  XX,,o",
"       vv              vv    O........O                  O......",
"                             .+@#$$#@+         ..         +@#$;F",
"                            X.@%V66e;:,oo,XX   ..   XX,oo,:;-6un",
"                           XX.#VC77<34,G5o,XX  ..  XX,o5G,43D7mH",
"                           X,.$6788790.,X.....    .....X,.0*1zxA",
"                           X,.$678qw23;$0;$#B+ XX +B#$;0$;3nJghK",
"                           XX.#e<7rty2uuNu630:,55,:036uNuu2L7pas",
"                            X.@;392y7paMPm7nI@,ZZ,@In7mPMap1U2ui",
"                             .+:403dfghAAhzl=$.oo.$=lzhAAhgYu3;T",
"                             O X,.$=lzhAAhgfN3;##;3NfghAAhzRE0.o",
"                          v..  ,o,@bn7mPMap7U2uiiu2U7paMPm7NW@,Z",
"                          v..  X,X:036uNuu2U7passap7U2uuNu630:X5",
"                           vv     +B#$;0$;3NfghAAhgfN3;$0;$QB+ X",
"                                 O.....X,.$=lzxAAxzl=$.,X.....O ",
"                              v..  XX,o55,@bN1!MM!1Nb@,55o,XX  .",
"                              v..   XX,ooX:03=iNNi=30:Xoo,XX   .",
"                               vv         +@#$;%%;$#@+         .",
"                                         O............O         ",
"                                      ...  X,o5555o,X  ...      "
};
