/* XPM */
static char *result[] = {
/* columns rows colors chars-per-pixel */
"64 64 243 2 ",
"   c #16091A",
".  c #18101F",
"X  c #0A0921",
"o  c #140E21",
"O  c #190D20",
"+  c #0E1224",
"@  c #161324",
"#  c #121A36",
"$  c #2D1325",
"%  c #251F27",
"&  c #331728",
"*  c #28142D",
"=  c #3A2426",
"-  c #551A2B",
";  c #47192C",
":  c #681D2D",
">  c #791A29",
",  c #453B30",
"<  c #522F32",
"1  c #692834",
"2  c #3E473A",
"3  c #444438",
"4  c #59413E",
"5  c #674335",
"6  c #776A3B",
"7  c #6D6439",
"8  c #142644",
"9  c #193A4B",
"0  c #143852",
"q  c #0C2D5A",
"w  c #123C6C",
"e  c #143C75",
"r  c #30366B",
"t  c #202E4A",
"y  c #743557",
"u  c #52376C",
"i  c #683168",
"p  c #5F2745",
"a  c #1C4251",
"s  c #2D464D",
"d  c #144A71",
"f  c #2A4370",
"g  c #1D687A",
"h  c #3F687B",
"j  c #286B7A",
"k  c #3F655C",
"l  c #464848",
"z  c #7A584A",
"x  c #704E4E",
"c  c #504E6E",
"v  c #6F4F6F",
"b  c #4C6C78",
"n  c #787173",
"m  c #9B1D2F",
"M  c #9A222F",
"N  c #882533",
"B  c #9B2433",
"V  c #9D2836",
"C  c #95313E",
"Z  c #84212E",
"A  c #A73039",
"S  c #A61C29",
"D  c #9A483B",
"F  c #8A483C",
"G  c #B44C3B",
"H  c #AD4C3B",
"J  c #9A3741",
"K  c #8E3046",
"L  c #AC3542",
"P  c #B33642",
"I  c #863D6B",
"U  c #8B4C56",
"Y  c #B64744",
"T  c #B25553",
"R  c #B67142",
"E  c #8D4E6C",
"W  c #B35268",
"Q  c #B17076",
"!  c #93796B",
"~  c #C84A55",
"^  c #D6555D",
"/  c #C6564F",
"(  c #C66F56",
")  c #C95968",
"_  c #D75C66",
"`  c #E55B65",
"'  c #D7706B",
"]  c #E8676E",
"[  c #E57966",
"{  c #F87579",
"}  c #F16B73",
"|  c #748F76",
" . c #67A45F",
".. c #68CC68",
"X. c #398F61",
"o. c #9B9C58",
"O. c #9E8E48",
"+. c #A5964A",
"@. c #B19249",
"#. c #88B451",
"$. c #9AA66C",
"%. c #A2B96A",
"&. c #AFA04B",
"*. c #D6994D",
"=. c #C49F54",
"-. c #CAA257",
";. c #D1A452",
":. c #E3A457",
">. c #D18A6E",
",. c #F68B71",
"<. c #FFA06D",
"1. c #FEA86E",
"2. c #FDBB66",
"3. c #F5B473",
"4. c #D5A460",
"5. c #ADD057",
"6. c #B7C47E",
"7. c #93D75C",
"8. c #D4C153",
"9. c #D9DE53",
"0. c #EDD558",
"q. c #F6E35D",
"w. c #E3E659",
"e. c #D2CC66",
"r. c #D8C072",
"t. c #FBC667",
"y. c #FFD965",
"u. c #EBC870",
"i. c #FFEC66",
"p. c #FFED7B",
"a. c #E4E676",
"s. c #DBE155",
"d. c #0B4885",
"f. c #084586",
"g. c #114A85",
"h. c #114D89",
"j. c #154483",
"k. c #0D5A9B",
"l. c #12568A",
"z. c #156999",
"x. c #19709E",
"c. c #326B8B",
"v. c #0D5EA0",
"b. c #156DA1",
"n. c #1772A1",
"m. c #0B74B3",
"M. c #2D74A5",
"N. c #4A6E93",
"B. c #73718A",
"V. c #4675A3",
"C. c #727CA4",
"Z. c #615C89",
"A. c #0678C1",
"S. c #AA748D",
"D. c #C37D86",
"F. c #F67A81",
"G. c #1D8A9B",
"H. c #2A8B9A",
"J. c #1C94B0",
"K. c #279AAC",
"L. c #26A6B6",
"P. c #76959D",
"I. c #4DB8A8",
"U. c #49ABBB",
"Y. c #5E98B4",
"T. c #51C1B7",
"R. c #068BD5",
"E. c #1DA9C9",
"W. c #1EB8D2",
"Q. c #21A9C9",
"!. c #13B2E8",
"~. c #0A9CE0",
"^. c #4AACC4",
"/. c #7BBAC5",
"(. c #24C3D1",
"). c #25C2CF",
"_. c #22CDE3",
"`. c #23DDEA",
"'. c #24E8F7",
"]. c #33EDFA",
"[. c #2EE9F6",
"{. c #27D4E2",
"}. c #46C7D8",
"|. c #54CDD2",
" X c #57EAD4",
".X c #52D2E2",
"XX c #4DEEFB",
"oX c #5DF4FE",
"OX c #5AEBF3",
"+X c #7EF3EA",
"@X c #B58393",
"#X c #9C9FA7",
"$X c #A1A8B0",
"%X c #D1878C",
"&X c #FB8B8F",
"*X c #F18B92",
"=X c #FDAC97",
"-X c #FDA58D",
";X c #F4B0B2",
":X c #D3A6A3",
">X c #AAC785",
",X c #A7C9BF",
"<X c #B1EB9E",
"1X c #D5D28D",
"2X c #FEDA89",
"3X c #EAC881",
"4X c #D0EB85",
"5X c #FDF18E",
"6X c #F1D5BD",
"7X c #E6C6B1",
"8X c #F9F3A6",
"9X c #FEF6BB",
"0X c #FFEBA1",
"qX c #C8EDA3",
"wX c #96B9CC",
"eX c #B0B6CE",
"rX c #9CCEE0",
"tX c #A5D4E3",
"yX c #86F1F3",
"uX c #85EDF6",
"iX c #A4F7FE",
"pX c #B5EAF0",
"aX c #9AD4CF",
"sX c #D2DCDF",
"dX c #FFC6C6",
"fX c #F2D7C9",
"gX c #FFF4DE",
"hX c #F7F5DA",
"jX c #F7F1D2",
"kX c #C6D5E4",
"lX c #D5DDE1",
"zX c #EED9E1",
"xX c #D8E5E9",
"cX c #DAF7E3",
"vX c #CBFAFE",
"bX c #CEF6F3",
"nX c #FEE6E2",
"mX c #FEFDE4",
"MX c #FFFFE9",
"NX c #FFFFFE",
"BX c #FEFEF7",
"VX c #D9FADA",
"CX c None",
/* pixels */
"h.h.h.d.d.d.d.d.CXCXCXCXCXCXCXCXCXCXCXCXCXCXCXCXCXCXCXCXCXCXCXCXCXCXCXCXCXCXCXCXCXCXCXCXCXCXCXCXCXCXCXCXCXCXCXCXCXCXCXCXCXCXCXCX",
"h.l.g c.N.V.V.V.CXCXCXCXCXCXCXCXCXCXCXCXCXCXCXCXCXCXCXCXCXCXCXCXCXCXCXCXCXCXCXCXCXCXCXCXCXCXCXCXCXCXCXCXCXCXCXCXCXCXCXCXCXCXCXCX",
"h.l.X. .,XkXkXwXV.f.CXCXCXCXCXCXCXCXCXCXCXCXCXCXCXCXCXCXCXCXCXCXCXCXCXCXCXCXCXCXCXCXCXCXCXCXCXCXCXCXCXCXCXCXCXCXCXCXCXCXCXCXCXCX",
"d.c...<XcXNXNXsXP.h CXCXCXCXCXCXCXCXCXCXCXCXCXCXCXCXCXCXCXCXCXCXCXCXCXCXCXCXCXCXCXCXCXCXCXCXCXCXCXCXCXCXCXCXCXCXCXCXCXCXCXCXCXCX",
"d.V.,XcXBXNXNXhX1X$.h f.CXCXCXCXCXCXCXCXCXCXCXCXCXCXCXCXCXCXCXCXCXCXCXCXCXCXCXCXCXCXCXCXCXCXCXCXCXCXCXCXCXCXCXCXCXCXCXCXCXCXCXCX",
"f.V.kXNXNXNXNXhXp.e.| N.CXCXCXCXCXCXCXCXCXCXCXCXCXCXCXCXCXCXCXCXCXCXCXCXCXCXCXCXCXCXCXCXCXCXCXCXCXCXCXCXCXCXCXCXCXCXCXCXCXCXCXCX",
"d.V.kXNXNXNXNXhX5X0.e.$.c.f.CXCXCXCXCXCXCXCXCXCXCXCXCXCXCXCXCXCXCXCXCXCXCXCXCXCXCXCXCXCXCXCXCXCXCXCXCXCXCXCXCXCXCXCXCXCXCXCXCXCX",
"d.V.wXkXbXvXvXcX8Xp.i.e.| h CXCXCXCXCXCXCXCXCXCXCXCXCXCXCXCXCXCXCXCXCXCXCXCXCXCXCXCXCXCXCXCXCXCXCXCXCXCXCXCXCXCXCXCXCXCXCXCXCXCX",
"CXCXM.Y..XoXOXuXVX9Xp.q.e.o.2 X CXCXCXCXCXCXCXCXCXCXCXCXCXCXCXCXCXCXCXCXCXCXCXCXCXCXCXCXCXCXCXCXCXCXCXCXCXCXCXCXCXCXCXCXCXCXCXCX",
"CXCXf.b.E._.`.XXiXcX8Xp.i.8.6 , CXCXCXCXCXCXCXCXCXCXCXCXCXCXCXCXCXCXCXCXCXCXCXCXCXCXCXCXCXCXCXCXCXCXCXCXCXCXCXCXCXCXCXCXCXCXCXCX",
"CXCXCXCXz.J._.].XXyXcX9Xp.w.;.+., X CXCXCXCXCXCXCXCXCXCXCXCXCXCXCXCXCXCXCXCXCXCXCXCXCXCXCXCXCXCXCXCXCXCXCXCXCXCXCXCXCXCXCXCXCXCX",
"CXCXCXCXj.b.E._.`.XXiXcX8Xp.i.8.6 , CXCXCXCXCXCXCXCXCXCXCXCXCXCXCXCXCXCXCXCXCXCXCXCXCXCXCXCXCXCXCXCXCXCXCXCXCXCXCXCXCXCXCXCXCXCX",
"CXCXCXCXCXCXx.J.{.].XXyXcX9Xp.q.8.O., X CXCXCXCXCXCXCXCXCXCXCXCXCXCXCXCXCXCXCXCXCXCXCXCXCXCXCXCXCXCXCXCXCXCXCXCXCXCXCXCXCXCXCXCX",
"CXCXCXCXCXCXj.z.K.(.`.XXiXcX8Xp.i.8.6 3 CXCXCXCXCXCXCXCXCXCXCXCXCXCXCXCXCXCXCXCXCXCXCXCXCXCXCXCXCXCXCXCXCXCXCXCXCXCXCXCXCXCXCXCX",
"CXCXCXCXCXCXCXCXa c.(.].XXyXcX9Xp.q.8.o.c.j.u i CXCXCXCXCXCXCXCXCXCXCXCXCXCXCXCXCXCXCXCXCXCXCXCXCXCXCXCXCXCXCXCXCXCXCXCXCXCXCXCX",
"CXCXCXCXCXCXCXCX  0 G.(.`.XXiXcX8Xp.i.e.| Z.v E CXCXCXCXCXCXCXCXCXCXCXCXCXCXCXCXCXCXCXCXCXCXCXCXCXCXCXCXCXCXCXCXCXCXCXCXCXCXCXCX",
"CXCXCXCXCXCXCXCXCXCXa j (.].XXyXcX9Xp.q.e.%.' ) i i CXCXCXCXCXCXCXCXCXCXCXCXCXCXCXCXCXCXCXCXCXCXCXCXCXCXCXCXCXCXCXCXCXCXCXCXCXCX",
"CXCXCXCXCXCXCXCXCXCX  9 H.(.`.XXiXcX8Xp.i.y.1.' Q E CXCXCXCXCXCXCXCXCXCXCXCXCXCXCXCXCXCXCXCXCXCXCXCXCXCXCXCXCXCXCXCXCXCXCXCXCXCX",
"CXCXCXCXCXCXCXCXCXCXCXCX9 c.(.].XX+XcX9Xp.q.y.u.0.-.U i CXCXCXCXCXCXCXCXCXCXCXCXCXCXCXCXCXCXCXCXCXCXCXCXCXCXCXCXCXCXCXCXCXCXCXCX",
"CXCXCXCXCXCXCXCXCXCXCXCX  0 J.{.'.XXiXcX0X5Xi.i.w.5.n l CXCXCXCXCXCXCXCXCXCXCXCXCXCXCXCXCXCXCXCXCXCXCXCXCXCXCXCXCXCXCXCXCXCXCXCX",
"CXCXCXCXCXCXCXCXCXCXCXCXCXCXz.R._.].XX+XcX9Xp.s.5...#. .F B CXCXCXCXCXCXCXCXCXCXCXCXCXCXCXCXCXCXCXCXCXCXCXCXCXCXCXCXCXCXCXCXCXCX",
"CXCXCXCXCXCXCXCXCXCXCXCXCXCXr c.^..X[.XXbX9X0Xa.5. .#.O.T P CXCXCXCXCXCXCXCXCXCXCXCXCXCXCXCXCXCXCXCXCXCXCXCXCXCXCXCXCXCXCXCXCXCX",
"CXCXCXCXCXCXCXCXCXCXCXCXCXCXu v S.$X X XqX0XjX6X*X>.>.>.' ^ A B CXCXCXCXCXCXCXCXCXCXCXCXCXCXCXCXCXCXCXCXCXCXCXCXCXCXCXCXCXCXCXCX",
"CXCXCXCXCXCXCXCXCXCXCXCXCXCXi E W @X|. X6.a.9XjX;X&X{ { { ] ~ P CXCXCXCXCXCXCXCXCXCXCXCXCXCXCXCXCXCXCXCXCXCXCXCXCXCXCXCXCXCXCXCX",
"CXCXCXCXCXCXCXCXCXCXCXCXCXCXCXCXE B.W. X..7.w.8XjXdX&X{ { } ] ) L B CXCXCXCXCXCXCXCXCXCXCXCXCXCXCXCXCXCXCXCXCXCXCXCXCXCXCXCXCXCX",
"CXCXCXCXCXCXCXCXCXCXCXCXCXCXCXCXi Z.Q.T...7.9.a.VXxX;X&XF.{ { ] ~ L CXCXCXCXCXCXCXCXCXCXCXCXCXCXCXCXCXCXCXCXCXCXCXCXCXCXCXCXCXCX",
"CXCXCXCXCXCXCXCXCXCXCXCXCXCXCXCXCXCXZ.B. .#.0.4XyX+XxXdX&X{ { } ] T < + CXCXCXCXCXCXCXCXB V B B V V CXCXCXCXCXCXCXCXCXCXCXCXCXCX",
"CXCXCXCXCXCXCXCXCXCXCXCXCXCXCXCXCXCXu x  .o.9.4X XXXiXxX;X&X{ { { ) 1 * CXCXCXCXCXCXCXCXG Y Y L A V CXCXCXCXCXCXCXCXCXCXCXCXCXCX",
"CXCXCXCXCXCXCXCXCXCXCXCXCXCXCXCXCXCXCXCXF R 0.4X X`.XXyXxX6X&X{ { _ J : & + CXCXCXCXB G 4.:.[ ~ L V CXCXCXCXCXCXCXCXCXCXCXCXCXCX",
"CXCXCXCXCXCXCXCXCXCXCXCXCXCXCXCXCXCXCXCXm G *.>X X'.'.OXiXxX;X&X&X] ~ C - $ CXCXCXCXP ( 2.y.1.[ P B CXCXCXCXCXCXCXCXCXCXCXCXCXCX",
"CXCXCXCXCXCXCXCXCXCXCXCXCXCXCXCXCXCXCXCXCXCXG ! ^.'.'.[.OXuXxXdX&X} } ~ C : $ & 1 P ^ ,.t.i.i.:.Y B CXCXCXCXCXCXCXCXCXCXCXCXCXCX",
"CXCXCXCXCXCXCXCXCXCXCXCXCXCXCXCXCXCXCXCXCXCXm U Y.}.[.[.'.OXkXfX-X,.{ ] ~ C < ; Z L W >.u.q.y.:.G B CXCXCXCXCXCXCXCXCXCXCXCXCXCX",
"CXCXCXCXCXCXCXCXCXCXCXCXCXCXCXCXCXCXCXCXCXCXCXCXU B.}.'.'..X:X-X2.2.,.{ } ^ C Z m K c n e.i.3.[ P V CXCXCXCXCXCXCXCXCXCXCXCXCXCX",
"CXCXCXCXCXCXCXCXCXCXCXCXCXCXCXCXCXCXCXCXCXCXCXCXV U H.(.'..X%X,.2.3.[ _ ) W A V K l z.N.$.4.,._ J : CXCXCXCXCXCXCXCXCXCXCXCXCXCX",
"CXCXCXCXCXCXCXCXCXCXCXCXCXCXCXCXCXCXCXCXCXCXCXCXCXCXs g (..X%X,.,.[ / J < 1 N K u c.E.K.k z ' ) 1 $ * @ CXCXCXCXCXCXCXCXCXCXCXCX",
"CXCXCXCXCXCXCXCXCXCXCXCXCXCXCXCXCXCXCXCXCXCXCXCXCXCX  9 K.U.$X%XF.` P N < 4 1 p f x.|.I.a & J W x , % o CXCXCXCXCXCXCXCXCXCXCXCX",
"CXCXCXCXCXCXCXCXCXCXCXCXCXCXCXCXCXCXCXCXCXCXCXCXCXCXCXCXa j U.wX%X` A H =.O.< % w c.>X%.2 + & x +.O.,   CXCXCXCXCXCXCXCXCXCXCXCX",
"CXCXCXCXCXCXCXCXCXCXCXCXCXCXCXCXCXCXCXCXCXCXCXCXCXCXCXCX  9 G.^.#XD./ / :.;.6 l c P.1Xr.z < , 7 &.+.s 8 CXCXCXCXCXCXCXCXCXCXCXCX",
"CXCXCXCXCXCXCXCXCXCXCXCXCXCXCXCXCXCXCXCXCXCXCXCXCXCXCXCXCXCX0 j U./.D.^ T R =.-.Q %XfX6XD.( -.+.7 2 a e j.h.g.h.CXCXCXCXCXCXCXCX",
"CXCXCXCXCXCXCXCXCXCXCXCXCXCXCXCXCXCXCXCXCXCXCXCXCXCXCXCXCXCX& s U./.@X) J Y :.t.<.=XnXnX=X<.t.;.4 8 e k.k.b.b.x.CXCXCXCXCXCXCXCX",
"CXCXCXCXCXCXCXCXCXCXCXCXCXCXCXCXCXCXCXCXCXCXCXCXCXCXCXCXCXCX> K Q S.W I y I [ <.2.2XgXgX2X2.<.' y r f k.A.~.W.W.x.g.f.h.CXCXCXCX",
"CXCXCXCXCXCXCXCXCXCXCXCXCXCXCXCXCXCXCXCXCXCXCXCXCXCXCXCXCXCXL ~ _ Q B.Z.n Q *X=X2X8XmXmX8X2X=X%XQ n M.m.A.~._.!.J.k.v.m.CXCXCXCX",
"CXCXCXCXCXCXCXCXCXCXCXCXCXCXCXCXCXCXCXCXCXCXCXCXCXCXCXCXM A ^ _ W B.^.^.>X3XfXnXgXmXBXBXmXgXnX6X3X>X|.E.m.m.~.~.R.A.R.A.v.h.CXCX",
"CXCXCXCXCXCXCXCXCXCXCXCXCXCXCXCXCXCXCXCXCXCXCXCXCXCXCXCXW ' *X%XS.C.^.T.%.r.fXnXnXmXBXBXmXgXnX6Xr.%.I.K.l.d.v.m.A.A.A.A.k.h.CXCX",
"CXCXCXCXCXCXCXCXCXCXCXCXCXCXCXCXCXCXCXCXCXCXCXCXCXCXM W :XfXnXzXlXeXC.c l z ' =X2X8XmXmX8X2X=X%Xz 2 a 9 8 8 0 0 0 d l.v.l.h.CXCX",
"CXCXCXCXCXCXCXCXCXCXCXCXCXCXCXCXCXCXCXCXCXCXCXCXCXCXM T 7XMXBXNXnXdXS.y ; 1 ( <.t.2XgXgX2X2.<.( 1 $ O @ O O . .   # e h.h.h.CXCX",
"CXCXCXCXCXCXCXCXCXCXCXCXCXCXCXCXCXCXCXCXCXCXCXCXCXCXM T 3.9XMXMX8X2X>.W K D :.t.<.=XnXnX=X<.t.:.D - $ o CXCXCXCXCXCXCXCXCXCXCXCX",
"CXCXCXCXCXCXCXCXCXCXCXCXCXCXCXCXCXCXCXCXCXCXCXCXCXCXM H *.r.7X7X3.4.[ _ T R =.=.( %X6X6XD.' :.:.( D - & CXCXCXCXCXCXCXCXCXCXCXCX",
"CXCXCXCXCXCXCXCXCXCXCXCXCXCXCXCXCXCXCXCXCXCXCXCXCXCXV A H T T T T G G / :.-.6 , , z r.r.z 1 D ( :.*.D : & + CXCXCXCXCXCXCXCXCXCX",
"CXCXCXCXCXCXCXCXCXCXCXCXCXCXCXCXCXCXCXCXCXCXCXCXCXCXV B B B M M M m M H *.@.l + X 2 %.%.3 O - D *.*.D : ; $ CXCXCXCXCXCXCXCXCXCX",
"CXCXCXCXCXCXCXCXCXCXCXCXCXCXCXCXCXCXCXCXCXCXCXCXCXCXCXCXCXCXCXCXCXCXB A H U c q # a I.T.s . $ < D D < ; : 1 & + CXCXCXCXCXCXCXCX",
"CXCXCXCXCXCXCXCXCXCXCXCXCXCXCXCXCXCXCXCXCXCXCXCXCXCXCXCXCXCXCXCXCXCXV M S y j.d 0 g K.G.9 . o & : : ; - N N - $ CXCXCXCXCXCXCXCX",
"CXCXCXCXCXCXCXCXCXCXCXCXCXCXCXCXCXCXCXCXCXCXCXCXCXCXCXCXCXCXCXCXCXCXCXCXCXCXj.z.L.K.g 8 % + CXCX= ; 1 N B B N : $ X CXCXCXCXCXCX",
"CXCXCXCXCXCXCXCXCXCXCXCXCXCXCXCXCXCXCXCXCXCXCXCXCXCXCXCXCXCXCXCXCXCXCXCXCXCXh.M..X}.j 9 # O CXCX. & : N B A L L 5 3 CXCXCXCXCXCX",
"CXCXCXCXCXCXCXCXCXCXCXCXCXCXCXCXCXCXCXCXCXCXCXCXCXCXCXCXCXCXCXCXCXCXCXCXCXCXd.V.tXiX|.G.0 @ CXCXCXCX& ; Z P ^ ' ;.o.h e d.h.CXCX",
"CXCXCXCXCXCXCXCXCXCXCXCXCXCXCXCXCXCXCXCXCXCXCXCXCXCXCXCXCXCXCXCXCXCXCXCXCXCXf.V.eXpX+X^.s   CXCXCXCX+ & : D [ 1.2X1X#XM.x.n.CXCX",
"CXCXCXCXCXCXCXCXCXCXCXCXCXCXCXCXCXCXCXCXCXCXCXCXCXCXCXCXCXCXCXCXCXCXCXCXCXCXCXCXV.Y.pX,Xc   CXCXCXCXCXCX$ 5 ;.2X9XmXlXrX}.E.n.h.",
"CXCXCXCXCXCXCXCXCXCXCXCXCXCXCXCXCXCXCXCXCXCXCXCXCXCXCXCXCXCXCXCXCXCXCXCXCXCXCXCXj.M.tXeXk # CXCXCXCXCXCXo 3 o.1XhXNXNXvXoX(.z.e ",
"CXCXCXCXCXCXCXCXCXCXCXCXCXCXCXCXCXCXCXCXCXCXCXCXCXCXCXCXCXCXCXCXCXCXCXCXCXCXCXCXd.M..X}.z.e CXCXCXCXCXCXCXCXb P.sXNXNXvXOXW.d # ",
"CXCXCXCXCXCXCXCXCXCXCXCXCXCXCXCXCXCXCXCXCXCXCXCXCXCXCXCXCXCXCXCXCXCXCXCXCXCXCXCXg.b.E.E.b.j.CXCXCXCXCXCXCXCXf.M.rXvXvXiX+XI.s   ",
"CXCXCXCXCXCXCXCXCXCXCXCXCXCXCXCXCXCXCXCXCXCXCXCXCXCXCXCXCXCXCXCXCXCXCXCXCXCXCXCXCXCXn.z.l.h.CXCXCXCXCXCXCXCXd.x.}.oXoX+X<X%.3   ",
"CXCXCXCXCXCXCXCXCXCXCXCXCXCXCXCXCXCXCXCXCXCXCXCXCXCXCXCXCXCXCXCXCXCXCXCXCXCXCXCXCXCXh.h.h.h.CXCXCXCXCXCXCXCXh.x.E.(.E.I.%.O., . ",
"CXCXCXCXCXCXCXCXCXCXCXCXCXCXCXCXCXCXCXCXCXCXCXCXCXCXCXCXCXCXCXCXCXCXCXCXCXCXCXCXCXCXCXCXCXCXCXCXCXCXCXCXCXCXCXCXn.z.d s 3 , % . ",
"CXCXCXCXCXCXCXCXCXCXCXCXCXCXCXCXCXCXCXCXCXCXCXCXCXCXCXCXCXCXCXCXCXCXCXCXCXCXCXCXCXCXCXCXCXCXCXCXCXCXCXCXCXCXCXCXd d #   . . @ @ "
};
